<?xml version="1.0" encoding="utf-8"?>
<!-- Generator: Adobe Illustrator 16.0.0, SVG Export Plug-In . SVG Version: 6.00 Build 0)  -->
<!DOCTYPE svg PUBLIC "-//W3C//DTD SVG 1.1//EN" "http://www.w3.org/Graphics/SVG/1.1/DTD/svg11.dtd">
<svg version="1.1" id="Layer_1" xmlns="http://www.w3.org/2000/svg" xmlns:xlink="http://www.w3.org/1999/xlink" x="0px" y="0px"
	 width="30px" height="30px" viewBox="0 0 30 30" enable-background="new 0 0 30 30" xml:space="preserve">
<g>
	<g>
		<path fill="none" stroke="#E5E5E5" stroke-width="2" stroke-miterlimit="10" d="M18.6,21.45v-1.9c2.5-2.3,5.4-5.8,5.4-8.6
			c0-5-4-8.9-9-8.9c-5,0-9,3.9-9,8.8c0,2.8,2.9,6.4,5.4,8.601v1.899"/>
		<path fill="none" stroke="#E5E5E5" stroke-width="2" stroke-miterlimit="10" d="M11.4,24.35v0.101c0,1.899,1.6,3.5,3.6,3.5
			c2,0,3.6-1.601,3.6-3.5V24.35"/>
	</g>
	<g>
		
			<polyline fill="none" stroke="#E5E5E5" stroke-width="2" stroke-linecap="round" stroke-linejoin="round" stroke-miterlimit="10" points="
			12,10.65 13,9.65 14,8.65 15,9.65 16,10.65 		"/>
		
			<polyline fill="none" stroke="#E5E5E5" stroke-width="2" stroke-linecap="round" stroke-linejoin="round" stroke-miterlimit="10" points="
			16,10.65 17,9.65 18,8.65 		"/>
	</g>
</g>
</svg>
