<?xml version="1.0" encoding="utf-8"?>
<!-- Generator: Adobe Illustrator 19.2.1, SVG Export Plug-In . SVG Version: 6.00 Build 0)  -->
<svg version="1.1" id="Layer_1" xmlns="http://www.w3.org/2000/svg" xmlns:xlink="http://www.w3.org/1999/xlink" x="0px" y="0px"
	 viewBox="0 0 34 34" style="enable-background:new 0 0 34 34;" xml:space="preserve">
<style type="text/css">
	.st0{fill:#FF5500;}
	.st1{fill:#FFFFFF;}
</style>
<g>
	<path class="st0" d="M33,17c0,1.2-1.9,2.1-2.1,3.2c-0.3,1.1,1,2.8,0.5,3.8c-0.5,1-2.6,1-3.3,1.9c-0.7,0.9-0.3,2.9-1.1,3.6
		c-0.9,0.7-2.8-0.2-3.8,0.3c-1,0.5-1.5,2.5-2.6,2.8c-1.1,0.2-2.4-1.4-3.6-1.4c-1.2,0-2.5,1.6-3.6,1.4c-1.1-0.3-1.6-2.3-2.6-2.8
		c-1-0.5-2.9,0.4-3.8-0.3c-0.9-0.7-0.4-2.8-1.1-3.6C5.2,25,3.1,25,2.6,23.9c-0.5-1,0.8-2.7,0.5-3.8C2.9,19.1,1,18.2,1,17
		c0-1.2,1.9-2.1,2.1-3.2c0.3-1.1-1-2.8-0.5-3.8c0.5-1,2.6-1,3.3-1.9C6.6,7.2,6.1,5.2,7,4.5c0.9-0.7,2.8,0.2,3.8-0.3
		c1-0.5,1.5-2.5,2.6-2.8c1.1-0.2,2.4,1.4,3.6,1.4c1.2,0,2.5-1.6,3.6-1.4c1.1,0.3,1.6,2.3,2.6,2.8c1,0.5,2.9-0.4,3.8,0.3
		c0.9,0.7,0.4,2.8,1.1,3.6c0.7,0.9,2.8,0.9,3.3,1.9c0.5,1-0.8,2.7-0.5,3.8C31.1,14.9,33,15.8,33,17z"/>
	<g>
		<g>
			<g>
				<g>
					<path class="st1" d="M20.2,14.6c-0.3,0-0.5-0.1-0.7-0.3c-0.4-0.4-0.4-1,0-1.4l3.2-3.2c0.4-0.4,1-0.4,1.4,0s0.4,1,0,1.4
						l-3.2,3.2C20.7,14.5,20.5,14.6,20.2,14.6z"/>
				</g>
			</g>
			<g>
				<g>
					<path class="st1" d="M17,13.3c-0.6,0-1-0.4-1-1V7.8c0-0.6,0.4-1,1-1s1,0.4,1,1v4.5C18,12.9,17.5,13.3,17,13.3z"/>
				</g>
				<g>
					<path class="st1" d="M17,26.8c-0.6,0-1-0.4-1-1v-4.5c0-0.6,0.4-1,1-1s1,0.4,1,1v4.5C18,26.4,17.5,26.8,17,26.8z"/>
				</g>
			</g>
			<g>
				<g>
					<path class="st1" d="M13.8,14.6c-0.3,0-0.5-0.1-0.7-0.3l-3.2-3.2c-0.4-0.4-0.4-1,0-1.4s1-0.4,1.4,0l3.2,3.2
						c0.4,0.4,0.4,1,0,1.4C14.3,14.5,14,14.6,13.8,14.6z"/>
				</g>
				<g>
					<path class="st1" d="M23.4,24.2c-0.3,0-0.5-0.1-0.7-0.3l-3.2-3.2c-0.4-0.4-0.4-1,0-1.4s1-0.4,1.4,0l3.2,3.2
						c0.4,0.4,0.4,1,0,1.4C23.9,24.1,23.6,24.2,23.4,24.2z"/>
				</g>
			</g>
			<g>
				<g>
					<path class="st1" d="M12.5,17.8H8c-0.6,0-1-0.4-1-1c0-0.6,0.4-1,1-1h4.5c0.6,0,1,0.4,1,1C13.5,17.4,13,17.8,12.5,17.8z"/>
				</g>
				<g>
					<path class="st1" d="M26,17.8h-4.5c-0.6,0-1-0.4-1-1c0-0.6,0.4-1,1-1H26c0.6,0,1,0.4,1,1C27,17.4,26.5,17.8,26,17.8z"/>
				</g>
			</g>
		</g>
		<g>
			<circle class="st0" cx="17" cy="16.8" r="5.4"/>
		</g>
		<g>
			
				<rect x="15.4" y="14.6" transform="matrix(0.7071 0.7071 -0.7071 0.7071 16.8692 -7.1375)" class="st1" width="3.3" height="4.4"/>
		</g>
		<g>
			<path class="st1" d="M12.8,18.7l-3.7,3.7c0.6,0.9,1.4,1.7,2.3,2.4l3.7-3.7L12.8,18.7z"/>
		</g>
	</g>
</g>
</svg>
