<?xml version="1.0" encoding="utf-8"?>
<!-- Generator: Adobe Illustrator 19.2.1, SVG Export Plug-In . SVG Version: 6.00 Build 0)  -->
<svg version="1.1" id="Layer_1" xmlns="http://www.w3.org/2000/svg" xmlns:xlink="http://www.w3.org/1999/xlink" x="0px" y="0px"
	 viewBox="0 0 25.4 27.4" style="enable-background:new 0 0 25.4 27.4;" xml:space="preserve">
<style type="text/css">
	.st0{fill:#E5E5E5;}
	.st1{fill:none;stroke:#E5E5E5;stroke-width:2;stroke-linecap:round;stroke-linejoin:round;stroke-miterlimit:10;}
</style>
<g>
	<g>
		<ellipse transform="matrix(0.7073 -0.707 0.707 0.7073 -1.5423 14.8206)" class="st0" cx="17.1" cy="9.3" rx="2" ry="2"/>
		<path class="st1" d="M21.7,14c2.6-2.6,2.6-6.8,0-9.4c-2.6-2.6-6.8-2.6-9.4,0c-2.1,2.1-2.5,5.1-1.3,7.6l-8.9,8.9
			c-0.5,0.5-0.5,1.4,0,1.9l1.2,1.2c0.3,0.3,0.6,0.4,1,0.4c0.1,0,0.2,0,0.3,0l1.8,0c0.8,0,1.4-0.6,1.4-1.4v-1.5h1.5
			c0.8,0,1.4-0.6,1.4-1.4v-1.6l3.5-3.5C16.6,16.5,19.7,16.1,21.7,14z"/>
	</g>
</g>
</svg>
