<?xml version="1.0" encoding="utf-8"?>
<!-- Generator: Adobe Illustrator 19.2.1, SVG Export Plug-In . SVG Version: 6.00 Build 0)  -->
<svg version="1.1" id="Layer_1" xmlns="http://www.w3.org/2000/svg" xmlns:xlink="http://www.w3.org/1999/xlink" x="0px" y="0px"
	 viewBox="0 0 345 100" style="enable-background:new 0 0 345 100;" xml:space="preserve">
<style type="text/css">
	.st0{fill:url(#SVGID_1_);}
	.st1{fill:#FFFFFF;}
	.st2{clip-path:url(#SVGID_3_);fill:url(#SVGID_4_);}
	.st3{clip-path:url(#SVGID_3_);}
	.st4{fill:url(#SVGID_5_);}
	.st5{opacity:0.75;}
</style>
<g>
	<g>
		
			<linearGradient id="SVGID_1_" gradientUnits="userSpaceOnUse" x1="196.757" y1="140.7906" x2="148.8791" y2="-37.8921" gradientTransform="matrix(1 0 0 -1 0 102)">
			<stop  offset="0" style="stop-color:#E81B8C"/>
			<stop  offset="1" style="stop-color:#FFB700"/>
		</linearGradient>
		<path class="st0" d="M345,100H0V4c0-2.2,1.8-4,4-4h337c2.2,0,4,1.8,4,4V100z"/>
		<g>
			<g>
				<path class="st1" d="M58,72.5c-12.4,0-22.5-10.1-22.5-22.5S45.6,27.5,58,27.5S80.5,37.6,80.5,50S70.4,72.5,58,72.5z M58,29
					c-11.6,0-21,9.4-21,21s9.4,21,21,21s21-9.4,21-21S69.6,29,58,29z"/>
			</g>
			<g>
				<path class="st1" d="M65.5,61.6c-0.1,0-0.2,0-0.4-0.1L58,57.8l-7.2,3.8c-0.2,0.1-0.5,0.1-0.8-0.1c-0.2-0.1-0.4-0.4-0.3-0.7
					l1.4-8.1L45.3,47c-0.2-0.2-0.3-0.5-0.2-0.7c0.1-0.3,0.3-0.4,0.6-0.5l8.1-1.2l3.6-7.3c0.2-0.5,1.1-0.5,1.3,0l3.6,7.3l8.1,1.2
					c0.3,0.1,0.5,0.2,0.6,0.5c0.1,0.3,0,0.6-0.2,0.7l-5.8,5.7l1.4,8.1c0.1,0.3-0.1,0.6-0.3,0.7C65.8,61.5,65.7,61.6,65.5,61.6z
					 M58,56.2c0.1,0,0.2,0,0.4,0.1l6.2,3.3l-1.2-7c-0.1-0.2,0.1-0.5,0.2-0.7l5.1-4.9l-7-1c-0.2,0-0.4-0.2-0.6-0.4L58,39.3l-3.1,6.3
					c-0.1,0.2-0.3,0.4-0.6,0.4l-7,1l5.1,4.9c0.1,0.1,0.2,0.4,0.2,0.7l-1.2,7l6.2-3.3C57.8,56.2,57.9,56.2,58,56.2z"/>
			</g>
		</g>
		<g>
			<defs>
				<path id="SVGID_2_" d="M345,100H0V4c0-2.2,1.8-4,4-4h337c2.2,0,4,1.8,4,4V100z"/>
			</defs>
			<clipPath id="SVGID_3_">
				<use xlink:href="#SVGID_2_"  style="overflow:visible;"/>
			</clipPath>
			<g class="st3">
				
					<radialGradient id="SVGID_4_" cx="3489.4185" cy="52" r="222.7104" gradientTransform="matrix(-1 0 0 -1 3547.4185 102)" gradientUnits="userSpaceOnUse">
					<stop  offset="0" style="stop-color:#FFFFFF"/>
					<stop  offset="1" style="stop-color:#FFFFFF;stop-opacity:0.1"/>
				</radialGradient>
				<path style="fill:url(#SVGID_4_);" d="M58,272.7c-59.5,0-115.4-23.2-157.5-65.2s-65.2-98-65.2-157.5s23.2-115.4,65.2-157.5
					s98-65.2,157.5-65.2s115.4,23.2,157.5,65.2s65.2,98,65.2,157.5s-23.2,115.4-65.2,157.5S117.5,272.7,58,272.7z M58-164.4
					c-57.3,0-111.1,22.3-151.6,62.8C-134.1-61.1-156.4-7.3-156.4,50s22.3,111.1,62.8,151.6S0.7,264.4,58,264.4
					s111.1-22.3,151.6-62.8s62.8-94.3,62.8-151.6s-22.3-111.1-62.8-151.6C169.1-142.1,115.3-164.4,58-164.4z M58,250.4
					c-53.5,0-103.8-20.8-141.6-58.7s-58.7-88.2-58.7-141.6c0-53.5,20.8-103.8,58.7-141.6S4.5-150.2,58-150.2s103.8,20.8,141.6,58.7
					s58.7,88.2,58.7,141.6c0,53.5-20.8,103.8-58.7,141.6C161.8,229.5,111.5,250.4,58,250.4z M58-142.1c-51.3,0-99.5,20-135.8,56.2
					C-114.1-49.5-134.1-1.3-134.1,50s20,99.5,56.2,135.8S6.7,242,57.9,242s99.5-20,135.8-56.2s56.2-84.5,56.2-135.8
					c0-51.3-20-99.5-56.2-135.8C157.5-122.1,109.3-142.1,58-142.1z M58,228c-47.5,0-92.3-18.5-125.9-52.2S-120,97.5-120,49.9
					c0-47.5,18.5-92.3,52.2-125.9S10.4-128.1,58-128.1s92.3,18.5,125.9,52.2S236,2.3,236,49.9c0,47.5-18.5,92.3-52.2,125.9
					C150.3,209.5,105.5,228,58,228z M58-119.7c-45.3,0-87.9,17.6-120,49.7c-32,32-49.7,74.6-49.7,119.9s17.6,87.9,49.7,120
					c32,32,74.6,49.7,120,49.7s87.9-17.6,120-49.7c32-32,49.7-74.6,49.7-120c0-45.3-17.6-87.9-49.7-120
					C145.9-102,103.3-119.7,58-119.7z M58,205.6c-41.6,0-80.6-16.2-110-45.6S-97.6,91.6-97.6,50S-81.4-30.6-52-60
					s68.5-45.6,110-45.6S138.6-89.4,168-60s45.6,68.5,45.6,110s-16.2,80.6-45.6,110S99.6,205.6,58,205.6z M58-97.3
					C-23.3-97.3-89.3-31.2-89.3,50c0,81.3,66.1,147.3,147.3,147.3S205.3,131.2,205.3,50C205.3-31.3,139.3-97.3,58-97.3z M58,183.3
					c-73.5,0-133.3-59.8-133.3-133.3C-75.3-23.5-15.5-83.3,58-83.3S191.3-23.5,191.3,50S131.5,183.3,58,183.3z M58-75
					C-10.9-75-67-19-67,50c0,68.9,56,125,125,125s125-56,125-125C183-18.9,126.9-75,58-75z M58,160.9C-3.1,160.9-52.9,111.1-52.9,50
					S-3.1-60.9,58-60.9S168.9-11.1,168.9,50S119.1,160.9,58,160.9z M58-52.6C1.4-52.6-44.6-6.6-44.6,50S1.4,152.6,58,152.6
					s102.6-46,102.6-102.6S114.6-52.6,58-52.6z M58,138.5c-48.8,0-88.5-39.7-88.5-88.5S9.2-38.5,58-38.5S146.5,1.2,146.5,50
					S106.8,138.5,58,138.5z M58-30.2c-44.3,0-80.2,36-80.2,80.2s36,80.2,80.2,80.2s80.2-36,80.2-80.2S102.3-30.2,58-30.2z M58,116.2
					C21.5,116.2-8.2,86.5-8.2,50S21.5-16.2,58-16.2s66.2,29.7,66.2,66.2S94.5,116.2,58,116.2z M58-7.9C26.1-7.9,0.1,18.1,0.1,50
					S26,107.9,58,107.9S115.9,82,115.9,50C115.9,18.1,89.9-7.9,58-7.9z M58,93.8c-24.1,0-43.8-19.6-43.8-43.8S33.9,6.2,58,6.2
					s43.8,19.6,43.8,43.8S82.1,93.8,58,93.8z M58,14.5c-19.6,0-35.5,15.9-35.5,35.5S38.4,85.5,58,85.5S93.5,69.6,93.5,50
					S77.6,14.5,58,14.5z"/>
			</g>
		</g>
	</g>
	<g>
		<g>
			<path class="st1" d="M183.7,35.4h4.1c1.8,0,3.1,0.2,4.1,0.8c0.8,0.5,1.2,1.3,1.2,2.5c0,0.7-0.2,1.4-0.6,1.9
				c-0.3,0.5-0.8,0.8-1.5,0.9v0.1c0.8,0.2,1.4,0.5,1.8,1c0.3,0.5,0.6,1.2,0.6,2c0,1.2-0.4,2.1-1.3,2.8c-0.8,0.7-2,1-3.5,1h-4.9
				L183.7,35.4L183.7,35.4z M186.5,40.6h1.6c0.7,0,1.3-0.1,1.7-0.3c0.3-0.2,0.5-0.6,0.5-1.2c0-0.5-0.2-0.8-0.6-1.1
				c-0.3-0.2-0.9-0.3-1.7-0.3h-1.5L186.5,40.6L186.5,40.6z M186.5,42.7v3.4h1.8c0.7,0,1.3-0.2,1.7-0.4c0.3-0.3,0.6-0.7,0.6-1.3
				c0-1.1-0.7-1.7-2.3-1.7H186.5z"/>
			<path class="st1" d="M206.5,35.4v8.4c0,1-0.2,1.8-0.7,2.6c-0.4,0.7-1.1,1.2-1.8,1.7c-0.8,0.4-1.7,0.6-2.9,0.6
				c-1.7,0-3-0.4-3.9-1.3c-0.9-0.8-1.4-2.1-1.4-3.5v-8.4h2.7v7.9c0,1,0.2,1.7,0.6,2.2c0.4,0.5,1.1,0.7,2,0.7c0.9,0,1.6-0.2,2-0.7
				c0.4-0.5,0.6-1.2,0.6-2.2v-7.9L206.5,35.4L206.5,35.4z"/>
			<path class="st1" d="M215.2,37.5c-1.1,0-1.8,0.4-2.4,1.2c-0.6,0.7-0.8,1.9-0.8,3.2c0,2.9,1.1,4.4,3.2,4.4c0.9,0,2-0.2,3.3-0.7
				v2.3c-1.1,0.4-2.2,0.7-3.6,0.7c-1.9,0-3.3-0.6-4.3-1.7c-1-1.2-1.5-2.8-1.5-5c0-1.3,0.2-2.6,0.7-3.6c0.5-1,1.2-1.8,2.2-2.3
				c0.9-0.6,2-0.8,3.2-0.8s2.6,0.3,3.8,0.9l-0.9,2.2c-0.5-0.2-1-0.4-1.5-0.6C216.2,37.6,215.7,37.5,215.2,37.5z"/>
			<path class="st1" d="M231.8,48.4h-3.1l-3.4-5.5l-1.2,0.8v4.6h-2.7v-13h2.7v6l1.1-1.5l3.6-4.4h3.1l-4.6,5.8L231.8,48.4z"/>
			<path class="st1" d="M240.9,48.4h-7.4v-13h7.4v2.2h-4.7v2.8h4.4v2.2h-4.4V46h4.7V48.4z"/>
			<path class="st1" d="M248.7,48.4h-2.7V37.7h-3.6v-2.3h9.8v2.3h-3.6L248.7,48.4L248.7,48.4z"/>
			<path class="st1" d="M254.1,48.4v-13h2.7v10.8h5.3v2.3L254.1,48.4L254.1,48.4z"/>
			<path class="st1" d="M264.5,48.4v-13h2.7v13C267.2,48.4,264.5,48.4,264.5,48.4z"/>
			<path class="st1" d="M278.1,44.8c0,1.2-0.4,2.1-1.2,2.8c-0.8,0.7-2,1-3.6,1c-1.4,0-2.6-0.2-3.6-0.7v-2.6c0.9,0.4,1.7,0.7,2.2,0.8
				c0.6,0.2,1.2,0.2,1.7,0.2c0.6,0,1.1-0.1,1.4-0.3c0.3-0.2,0.5-0.6,0.5-1c0-0.2-0.1-0.5-0.2-0.7s-0.3-0.4-0.7-0.6
				c-0.2-0.2-0.8-0.5-1.7-0.9c-0.8-0.4-1.4-0.7-1.8-1.1s-0.7-0.7-0.9-1.2c-0.2-0.5-0.3-1-0.3-1.6c0-1.2,0.4-2.1,1.2-2.7s1.8-1,3.2-1
				c0.7,0,1.3,0.1,1.9,0.2c0.6,0.2,1.2,0.4,1.9,0.7l-0.9,2.2c-0.7-0.2-1.2-0.5-1.7-0.6c-0.4-0.1-0.9-0.2-1.3-0.2
				c-0.5,0-0.9,0.1-1.2,0.3c-0.2,0.2-0.4,0.6-0.4,0.9c0,0.2,0.1,0.4,0.2,0.7c0.1,0.2,0.3,0.3,0.5,0.5c0.2,0.2,0.8,0.5,1.7,0.9
				c1.2,0.6,2.1,1.2,2.5,1.7C277.9,43.2,278.1,44,278.1,44.8z"/>
			<path class="st1" d="M285.5,48.4h-2.7V37.7h-3.6v-2.3h9.8v2.3h-3.6L285.5,48.4L285.5,48.4z"/>
			<path class="st1" d="M296.9,48.4h-2.7v-7.5v-1.2l0.1-1.3c-0.5,0.5-0.7,0.7-0.9,0.9l-1.5,1.2l-1.3-1.7l4.2-3.3h2.2L296.9,48.4
				L296.9,48.4z"/>
			<path class="st1" d="M309.6,48.4h-9.1v-1.9l3.2-3.3c1-1,1.6-1.7,1.9-2.1c0.3-0.4,0.5-0.7,0.7-1.1c0.2-0.3,0.2-0.7,0.2-1
				c0-0.5-0.2-0.9-0.4-1.2s-0.7-0.4-1.2-0.4c-0.5,0-1,0.1-1.5,0.3s-1,0.6-1.5,1l-1.5-1.7c0.7-0.6,1.2-0.9,1.6-1.2
				c0.4-0.2,0.9-0.4,1.4-0.5c0.5-0.1,1.1-0.2,1.7-0.2c0.8,0,1.5,0.2,2.2,0.4c0.7,0.3,1.1,0.7,1.5,1.2c0.4,0.5,0.5,1.2,0.5,1.8
				c0,0.6-0.1,1.2-0.3,1.7c-0.2,0.5-0.5,1.1-1,1.6c-0.4,0.6-1.2,1.3-2.3,2.3l-1.7,1.6V46h5.6L309.6,48.4L309.6,48.4z"/>
			<path class="st1" d="M312.2,48.4l4.9-10.7h-6.4v-2.3h9.3v1.7l-4.9,11.3H312.2z"/>
		</g>
		<g class="st5">
			<path class="st1" d="M183.9,64.6v-9.4h1.1v8.4h4.1v1H183.9z"/>
			<path class="st1" d="M200.5,64.6h-5.3v-9.4h5.3v1h-4.1v3.1h3.9v1h-3.9v3.5h4.1V64.6z"/>
			<path class="st1" d="M213.1,64.6l-1.2-3h-3.8l-1.2,3h-1.2l3.7-9.5h0.9l3.7,9.5H213.1z M211.5,60.7l-1.1-2.9
				c-0.2-0.3-0.2-0.8-0.4-1.3c-0.1,0.4-0.2,0.8-0.4,1.3l-1.1,2.9H211.5z"/>
			<path class="st1" d="M227.6,59.8c0,1.6-0.4,2.7-1.2,3.6c-0.8,0.8-2.1,1.2-3.6,1.2H220v-9.4h2.9c1.5,0,2.6,0.4,3.4,1.2
				C227.1,57.3,227.6,58.4,227.6,59.8z M226.4,59.8c0-1.2-0.3-2.2-0.9-2.8c-0.6-0.7-1.6-0.9-2.7-0.9h-1.6v7.5h1.3c1.3,0,2.3-0.3,3-1
				C226.1,62.1,226.4,61.2,226.4,59.8z"/>
			<path class="st1" d="M239.4,64.6h-5.3v-9.4h5.3v1h-4.1v3.1h3.9v1h-3.9v3.5h4.1V64.6z"/>
			<path class="st1" d="M247.1,60.8v3.9H246v-9.4h2.6c1.2,0,2,0.2,2.6,0.7c0.6,0.4,0.8,1.1,0.8,2c0,1.2-0.7,2.1-1.9,2.6l2.6,4.2
				h-1.3l-2.3-3.9C249,60.8,247.1,60.8,247.1,60.8z M247.1,59.8h1.5c0.7,0,1.3-0.2,1.7-0.5c0.3-0.3,0.6-0.7,0.6-1.4
				s-0.2-1.1-0.6-1.3c-0.3-0.2-1-0.4-1.7-0.4h-1.4L247.1,59.8L247.1,59.8z"/>
			<path class="st1" d="M258.7,55.2h2.6c1.2,0,2.2,0.2,2.7,0.6c0.6,0.4,0.8,1,0.8,1.7c0,0.6-0.2,1-0.5,1.4c-0.3,0.3-0.7,0.6-1.4,0.7
				v0.1c1.4,0.2,2.2,1,2.2,2.2c0,0.8-0.2,1.5-0.8,2s-1.4,0.7-2.4,0.7h-3.3L258.7,55.2L258.7,55.2z M259.8,59.3h1.8
				c0.7,0,1.3-0.1,1.7-0.3c0.3-0.2,0.5-0.7,0.5-1.2c0-0.5-0.2-0.9-0.6-1.2c-0.4-0.2-1-0.3-1.8-0.3h-1.7L259.8,59.3L259.8,59.3z
				 M259.8,60.2v3.6h2c0.7,0,1.3-0.2,1.7-0.4c0.4-0.3,0.6-0.7,0.6-1.4c0-0.6-0.2-1-0.6-1.3c-0.4-0.2-1-0.4-1.8-0.4
				C261.7,60.2,259.8,60.2,259.8,60.2z"/>
			<path class="st1" d="M280,59.9c0,1.5-0.4,2.7-1.2,3.6c-0.7,0.8-1.8,1.3-3.2,1.3c-1.4,0-2.5-0.4-3.2-1.2c-0.7-0.8-1.2-2.1-1.2-3.6
				s0.4-2.7,1.2-3.6s1.8-1.2,3.2-1.2c1.3,0,2.4,0.4,3.1,1.3C279.6,57.2,280,58.4,280,59.9z M272.5,59.9c0,1.2,0.2,2.2,0.8,2.9
				c0.6,0.7,1.3,1,2.4,1c1.1,0,1.8-0.3,2.4-1s0.8-1.7,0.8-2.9s-0.2-2.2-0.8-2.9c-0.5-0.7-1.3-1-2.4-1c-1.1,0-1.8,0.3-2.4,1
				C272.7,57.7,272.5,58.7,272.5,59.9z"/>
			<path class="st1" d="M292.5,64.6l-1.2-3h-3.8l-1.2,3h-1.1l3.7-9.5h0.9l3.7,9.5H292.5z M291,60.7l-1.1-2.9
				c-0.2-0.3-0.2-0.8-0.4-1.3c-0.1,0.4-0.2,0.8-0.4,1.3l-1.1,2.9H291z"/>
			<path class="st1" d="M300.6,60.8v3.9h-1.1v-9.4h2.6c1.2,0,2,0.2,2.6,0.7c0.6,0.4,0.8,1.1,0.8,2c0,1.2-0.7,2.1-1.9,2.6l2.6,4.2
				h-1.3l-2.3-3.9C302.5,60.8,300.6,60.8,300.6,60.8z M300.6,59.8h1.5c0.7,0,1.3-0.2,1.7-0.5c0.3-0.3,0.6-0.7,0.6-1.4
				s-0.2-1.1-0.6-1.3c-0.3-0.2-1-0.4-1.7-0.4h-1.4L300.6,59.8L300.6,59.8z"/>
			<path class="st1" d="M319.8,59.8c0,1.6-0.4,2.7-1.2,3.6c-0.8,0.8-2.1,1.2-3.6,1.2h-2.6v-9.4h2.9c1.5,0,2.6,0.4,3.4,1.2
				C319.3,57.3,319.8,58.4,319.8,59.8z M318.5,59.8c0-1.2-0.3-2.2-0.9-2.8c-0.6-0.7-1.6-0.9-2.7-0.9h-1.6v7.5h1.3c1.3,0,2.3-0.3,3-1
				C318.2,62.1,318.5,61.2,318.5,59.8z"/>
		</g>
	</g>
</g>
</svg>
