<?xml version="1.0" encoding="utf-8"?>
<!-- Generator: Adobe Illustrator 19.2.1, SVG Export Plug-In . SVG Version: 6.00 Build 0)  -->
<svg version="1.1" id="Layer_1" xmlns="http://www.w3.org/2000/svg" xmlns:xlink="http://www.w3.org/1999/xlink" x="0px" y="0px"
	 viewBox="0 0 21.5 22.7" style="enable-background:new 0 0 21.5 22.7;" xml:space="preserve">
<style type="text/css">
	.st0{fill:none;stroke:#A3A3A3;stroke-width:2;stroke-linecap:round;stroke-linejoin:round;stroke-miterlimit:10;}
</style>
<g>
	<path class="st0" d="M16.7,1.6c-1.8-0.2-3.8-0.3-5.9-0.3S6.7,1.5,4.9,1.6c0,0-0.1,7.5,1.6,9.1c1.3,1.3,2.2,2,4.3,2s3-0.8,4.3-2
		C16.7,9.2,16.7,1.6,16.7,1.6z"/>
	<path class="st0" d="M6.5,18.1C7.7,16.9,9,15.2,9,12.6"/>
	<path class="st0" d="M15,18.1c-1.2-1.2-2.5-2.9-2.5-5.6"/>
	<rect x="4.4" y="18.1" class="st0" width="12.7" height="3.3"/>
	<path class="st0" d="M4.9,2.5c-1.4,0.3-3,0.2-3.5,1.3C0.4,5.8,4,11.2,6.2,10.5"/>
	<path class="st0" d="M16.7,2.5c1.4,0.3,3,0.2,3.5,1.3c0.9,1.9-2.7,7.3-4.9,6.6"/>
</g>
</svg>
