<?xml version="1.0" encoding="utf-8"?>
<!-- Generator: Adobe Illustrator 18.1.1, SVG Export Plug-In . SVG Version: 6.00 Build 0)  -->
<svg version="1.1" id="Layer_1" xmlns="http://www.w3.org/2000/svg" xmlns:xlink="http://www.w3.org/1999/xlink" x="0px" y="0px"
	 viewBox="0 0 50 50" enable-background="new 0 0 50 50" xml:space="preserve">
<g>
	<g>
		<g>
			<circle fill="#6854A3" cx="24.5" cy="24.8" r="17.2"/>
		</g>
		<g>
			<path fill="#6854A3" d="M24.5,43L24.5,43c-10,0-18.2-8.2-18.2-18.2c0-10,8.2-18.2,18.2-18.2c10,0,18.2,8.2,18.2,18.2
				C42.7,34.9,34.6,43,24.5,43z M24.5,8.7c-8.9,0-16.2,7.3-16.2,16.2c0,8.9,7.3,16.2,16.2,16.2c8.9,0,16.2-7.3,16.2-16.2
				C40.7,15.9,33.5,8.7,24.5,8.7z"/>
		</g>
	</g>
	<g>
		<path fill="#FFFFFF" d="M15.2,25.8c-0.6,0-1-0.4-1-1s0.4-1,1-1l18.6,0c0.6,0,1,0.4,1,1s-0.4,1-1,1L15.2,25.8z"/>
	</g>
	<g>
		<path fill="#FFFFFF" d="M27.3,32.4c-0.3,0-0.5-0.1-0.7-0.3c-0.4-0.4-0.4-1,0-1.4l6.6-6.6c0.4-0.4,1-0.4,1.4,0c0.4,0.4,0.4,1,0,1.4
			L28,32.1C27.8,32.3,27.5,32.4,27.3,32.4z"/>
	</g>
	<g>
		<path fill="#FFFFFF" d="M33.9,25.8c-0.3,0-0.5-0.1-0.7-0.3L26.6,19c-0.4-0.4-0.4-1,0-1.4c0.4-0.4,1-0.4,1.4,0l6.6,6.6
			c0.4,0.4,0.4,1,0,1.4C34.4,25.7,34.1,25.8,33.9,25.8z"/>
	</g>
</g>
</svg>
