<?xml version="1.0" encoding="utf-8"?>
<!-- Generator: Adobe Illustrator 15.0.0, SVG Export Plug-In . SVG Version: 6.00 Build 0)  -->
<!DOCTYPE svg PUBLIC "-//W3C//DTD SVG 1.1//EN" "http://www.w3.org/Graphics/SVG/1.1/DTD/svg11.dtd">
<svg version="1.1" id="Layer_1" xmlns="http://www.w3.org/2000/svg" xmlns:xlink="http://www.w3.org/1999/xlink" x="0px" y="0px"
	 width="18px" height="18px" viewBox="288.64 411.945 18 18" enable-background="new 288.64 411.945 18 18" xml:space="preserve">
<g>
	<g>
		<g>
			<path fill="#A4A4A4" d="M303.286,427.573l-1.274-1.273l1.477-1.476c2.032-2.704,1.748-6.549-0.67-8.967
				c-1.312-1.311-3.101-2.062-4.909-2.062v-1.8c2.282,0,4.535,0.943,6.182,2.589c3.068,3.067,3.408,7.959,0.792,11.38l-0.078,0.09
				L303.286,427.573z"/>
		</g>
	</g>
	<g>
		<g>
			<path fill="#A4A4A4" d="M297.372,429.896c-2.282,0-4.536-0.944-6.182-2.589c-3.068-3.068-3.409-7.96-0.794-11.38l0.079-0.09
				l1.521-1.521l1.273,1.272l-1.478,1.479c-2.031,2.703-1.747,6.548,0.672,8.967c1.311,1.31,3.101,2.062,4.909,2.062V429.896z"/>
		</g>
	</g>
	<g>
		<polygon fill="#A4A4A4" points="305.422,427.837 301.659,427.837 301.659,424.075 303.46,424.075 303.46,426.036 305.422,426.036 
					"/>
	</g>
	<g>
		<polygon fill="#A4A4A4" points="293.621,417.813 291.821,417.813 291.821,415.852 289.859,415.852 289.859,414.052 
			293.621,414.052 		"/>
	</g>
</g>
</svg>
