<?xml version="1.0" encoding="utf-8"?>
<!-- Generator: Adobe Illustrator 15.0.0, SVG Export Plug-In . SVG Version: 6.00 Build 0)  -->
<!DOCTYPE svg PUBLIC "-//W3C//DTD SVG 1.1//EN" "http://www.w3.org/Graphics/SVG/1.1/DTD/svg11.dtd">
<svg version="1.1" id="Layer_1" xmlns="http://www.w3.org/2000/svg" xmlns:xlink="http://www.w3.org/1999/xlink" x="0px" y="0px"
	 width="520px" height="200px" viewBox="0 0 520 200" style="enable-background:new 0 0 520 200;" xml:space="preserve">
<style type="text/css">
<![CDATA[
	.st0{fill:url(#SVGID_1_);}
	.st1{fill:url(#SVGID_2_);}
	.st2{fill:url(#SVGID_3_);}
	.st3{fill:url(#SVGID_4_);}
	.st4{fill:url(#SVGID_5_);}
	.st5{fill:url(#SVGID_6_);}
	.st6{fill:#FFFFFF;}
]]>
</style>
<g>
	<g>
		<path class="st6" d="M269.5,45.5c14.2,0,15.6,9.3,15.6,13.3c0,5.5-3.9,9.4-8.1,10.9v0.2c3.4,0.8,11.1,3.8,11.1,13.4
			c0,7.3-5,14.6-17.1,14.6h-26.7V45.5H269.5z M264.9,66.1c5.8,0,6.7-3,6.7-4.9c0-2.8-1.7-5.2-6.7-5.2h-6.1v10.2H264.9z M265.5,87.3
			c2.2,0,7.8-0.1,7.8-5.5c0-5.2-5.5-5.2-7.8-5.2h-6.7v10.8H265.5z"/>
		<path class="st6" d="M294.3,76.6V45.5h14.6v30.8c0,3.2,0.6,10.4,8.4,10.4c7.8,0,8.4-7.2,8.4-10.4V45.5h14.6v31.1
			c0,5.6-1.2,22.6-23,22.6C295.5,99.3,294.3,82.2,294.3,76.6z"/>
		<path class="st6" d="M387.7,95.4c-4.7,3.2-9.6,3.9-14.1,3.9c-15.5,0-26.7-10.9-26.7-27.6c0-17.5,12.3-27.6,26.5-27.6
			c4.6,0,9.9,1.2,14.3,4.2v15.2c-2.7-3.1-6.8-6.3-12.4-6.3c-8.1,0-13.4,6.4-13.4,15c0,7.9,5,14.1,13.4,14.1c5.5,0,9.7-2.9,12.4-5.7
			V95.4z"/>
		<path class="st6" d="M395,45.5h14.6v22l15.8-22h17.2l-19.9,25.3l20.4,27h-18.3l-15.2-22.5v22.5H395V45.5z"/>
		<path class="st6" d="M447.3,45.5h31.4V58H462v7.3h15.2v11.5H462v8.4h16.7v12.6h-31.4V45.5z"/>
		<path class="st6" d="M493.9,58h-11.5V45.5H520V58h-11.5v39.7h-14.6V58z"/>
		<path class="st6" d="M244.2,110.2h14.6V150h15.7v12.5h-30.3V110.2z"/>
		<path class="st6" d="M280.2,110.2h14.6v52.3h-14.6V110.2z"/>
		<path class="st6" d="M331.8,124.9c-2.5-2.2-5.8-4.6-9.5-4.6c-4.4,0-5.5,2.6-5.5,4.5c0,3.1,3.6,4,6.2,4.6
			c7.7,1.8,16.3,5.1,16.3,17.5c0,10.4-7.4,17.2-19.6,17.2c-6.7,0-12-2.2-19.6-8.4l6.9-11.1c4.1,4,8.7,6.9,13,6.9
			c2.7,0,5.2-1.3,5.2-4.4c0-4.8-4.5-5.4-10-7.1c-4.2-1.3-12.5-4.2-12.5-15.5c0-8.4,6.1-15.8,18.4-15.8c8.2,0,13.8,3.7,15.9,5.2
			L331.8,124.9z"/>
		<path class="st6" d="M353.4,122.8h-11.5v-12.6h37.6v12.6h-11.5v39.7h-14.6V122.8z"/>
		<path class="st6" d="M398.6,122.3h-8v-12h21.5v52.3h-13.5V122.3z"/>
		<path class="st6" d="M456.4,162.5h-40.3l21.7-25.2c4.7-5.5,6.1-7.7,6.1-10.8c0-3.4-2.2-6.8-6.3-6.8c-6.1,0-6.5,6.8-6.5,8.9H418
			c0.2-7.5,4-19.9,19.9-19.9c13.1,0,19,8.6,19,17.4c0,7.8-4.2,12.8-16,24.9h15.4V162.5z"/>
		<path class="st6" d="M484.7,122.3h-21.4v-12h41.4l-24.1,52.3H465L484.7,122.3z"/>
	</g>
	<g>
		<linearGradient id="SVGID_1_" gradientUnits="userSpaceOnUse" x1="122.8701" y1="76.9136" x2="119.626" y2="89.0207">
			<stop  offset="0" style="stop-color:#E81B8C"/>
			<stop  offset="1" style="stop-color:#FFB700"/>
		</linearGradient>
		<path class="st0" d="M121.5,81.5c-0.2,0.4-0.4,0.8-0.7,1.1c-0.2,0.2-0.4,0.3-0.6,0.5c-1.1,1.8-2.1,3.5-3.2,5.3
			c2.9-3.6,5.8-7.1,8.7-10.7c-0.5,0.4-0.9,0.8-1.4,1.2C123.1,79.6,122.1,80.5,121.5,81.5z"/>
		<linearGradient id="SVGID_2_" gradientUnits="userSpaceOnUse" x1="113.2554" y1="103.7256" x2="111.6653" y2="109.6598">
			<stop  offset="0" style="stop-color:#E81B8C"/>
			<stop  offset="1" style="stop-color:#FFB700"/>
		</linearGradient>
		<path class="st1" d="M114.4,106.5c0-0.4,0.1-0.7,0.3-1.1c0.2-0.4,0.5-0.8,0.8-1.1c-2,1.6-4,3.2-6,4.8
			C111.1,108.2,112.8,107.4,114.4,106.5z"/>
		<linearGradient id="SVGID_3_" gradientUnits="userSpaceOnUse" x1="76.8428" y1="120.6387" x2="76.4853" y2="121.973">
			<stop  offset="0" style="stop-color:#E81B8C"/>
			<stop  offset="1" style="stop-color:#FFB700"/>
		</linearGradient>
		<path class="st2" d="M75.1,121.2c0.1,0.2,0.3,0.3,0.4,0.5c0.9-0.2,1.9-0.5,2.8-0.7C77.2,121.1,76.2,121.1,75.1,121.2z"/>
		<linearGradient id="SVGID_4_" gradientUnits="userSpaceOnUse" x1="81.0112" y1="137.9805" x2="81.0042" y2="138.0069">
			<stop  offset="0" style="stop-color:#E81B8C"/>
			<stop  offset="1" style="stop-color:#FFB700"/>
		</linearGradient>
		<path class="st3" d="M81,138L81,138C81,138,81,138,81,138C81,138,81,138,81,138z"/>
		<linearGradient id="SVGID_5_" gradientUnits="userSpaceOnUse" x1="125.8882" y1="3.3838" x2="74.1187" y2="196.5902">
			<stop  offset="0" style="stop-color:#E81B8C"/>
			<stop  offset="1" style="stop-color:#FFB700"/>
		</linearGradient>
		<path class="st4" d="M100,0C44.8,0,0,44.8,0,100c0,42.5,26.5,78.7,63.8,93.2c2.2-8.9,4.5-17.9,7.2-27c-1.4,2.6-2.9,5.2-4.3,7.7
			c0.1,0.7-0.1,1.3-0.5,1.9c-0.1,0.5-0.2,0.9-0.5,1.3c-0.1,0.2-0.2,0.4-0.3,0.6l-1.2,2.1c-0.7,1.3-1.5,1.7-2.5,3
			c-1.4,1.9-3.3,2.1-4.9,2.1c0,0,0,0,0,0c-0.9,0-2.1,0.7-3.2-0.8c-0.8-1.1-1.1-1.9-0.8-3.3c0.9-4.2,6.9-8.3,9.4-9.7
			c0.3-0.2,0.6-0.1,0.8-0.1c4.4-8,9-16.1,13.6-24.2c-0.9,0.9-1.9,1.7-3.4,2.2c-0.2,0.1-0.5,0.1-0.8,0.1c-0.4,0-0.7-0.1-1.1-0.2
			c-1.6,1.8-3.2,3.7-4.7,5.5c-0.5,0.6-1,1.1-1.5,1.7c0.3,0.9,0.3,1.9-0.3,2.7c-0.1,0.5-0.2,0.9-0.5,1.3c-0.1,0.2-0.2,0.4-0.3,0.6
			l-1.2,2.1c-0.7,1.3-1.5,1-2.5,2.3c-1.4,1.9-3.3,1.3-4.9,1.3c0,0,0,0,0,0c-0.9,0-2.1,1.4-3.2,0c-0.8-1.1-1.1-1.5-0.8-2.9
			c0,0,0,0.4,0,0.4c0,0,0,0.1,0,0.1c0-1.3,0.7-2.3,1.7-3.1c2.2-3,5.8-5.5,7.7-6.5c0.3-0.1,0.5-0.1,0.8-0.2c0.3-0.4,0.6-0.7,0.9-1
			c2.2-2.6,4.5-5.2,6.8-7.8c0-1.4,0.3-2.7,0.9-3.9c-6.5,5.1-12.9,10.1-19.3,15.1c-0.8,0.6-1.6,1.3-2.4,1.9c0.8,1.3,0.8,3.2-0.8,4.4
			l-1.9,1.3c-1.9,1.3-3.9,2.7-5.9,3.9c-0.4,0.2-0.9,0.5-1.4,0.8c-0.4,0.3-0.8,0.5-1.3,0.6c-0.7,0.3-1.4,0.5-2.1,0.5
			c-0.3,0-0.7,0-1-0.1c-1-0.3-1.8-1-2.4-2c-0.6-1-0.7-2.1-0.4-3.2c0.7-2.3,3.2-3.9,4.6-4.7c1.4-0.7,2.9-1.4,4.8-2.2
			c0.6-0.2,1.2-0.5,1.9-0.7l0.3-0.1c0.1-0.1,0.3-0.1,0.5-0.2c0.6-0.2,1.1-0.1,1.7,0c0.8-0.6,1.5-1.2,2.3-1.8
			c11-8.7,22.2-17.6,33.6-26.2c-8.6,4.1-17.1,8.4-25.4,12.6c-0.4,0.2-0.8,0.4-1.2,0.6c-2.1,4.1-7.5,7.5-11.9,7.5c-0.2,0-0.5,0-0.7,0
			c-1.7-0.1-2.8-1.3-3-3c-0.1-1.1,0.3-2.2,0.8-3.1l-0.3-0.3l0.4,0c1-1.4,2.5-2.5,3.8-3.3c1.8-1.2,4.6-2.8,7.6-3.4
			c1.6-0.3,2.8,0.5,3.3,1.7c10.4-5.2,21.1-10.6,31.8-15.6c-3.7,0.9-7.4,1.7-11.2,2.6c-0.4,0.5-0.9,0.9-1.6,1c-0.2,0-0.4,0.1-0.6,0.1
			c-0.8,0.4-1.6,1-2.4,1.6c-0.8,0.6-1.6,1.2-2.5,1.6c-1.6,0.8-3.1,1.2-4.7,1.2c-0.6,0-1.1,0-1.7-0.1c-0.7-0.1-1.4-0.6-1.9-1.3
			c0-0.1,0-0.1-0.1-0.2c-7.6,2-15.2,4-22.6,6c-0.1,0-0.2,0-0.2,0.1c-0.1,0.8-0.5,1.6-1.3,2.1c-0.4,0.3-1,0.6-1.6,1.1
			c-3.2,2.1-8.2,5.5-12.1,5.5c-0.7,0-1.3-0.1-1.9-0.3c-1.2-0.4-2-1.3-2.6-2.6c-0.4-0.6-0.6-1.3-0.6-2.1c0,0,0-0.1,0-0.1
			c-0.1-1.3,0.2-3.5,0.9-4.5c2.9-3.7,11.1-4.6,15-4.6h0.4c0.1,0,0.2,1,0.3,1c0.6-0.1,1.3,0.4,1.8,0.8c0.2,0.1,0.4,0.5,0.6,0.7
			c7.9-2.1,15.9-4.1,23.9-6.2c0.2-0.7,0.5-1.3,1.1-1.8c0.6-0.8,1.4-1.5,2.3-2c-4.7,0.3-9.4,0.5-14.1,0.8c-0.5,0.8-1.3,1.4-2.5,1.3
			c-0.8,0-1.5-0.1-2.3-0.3c-0.7,0.1-1.4,0.3-2.2,0.5c-1.4,0.4-2.8,0.7-4.3,0.7c-0.9,0-1.9-0.2-2.9-0.6c-0.3-0.1-0.5-0.2-0.7-0.3
			c0,0,0,0,0,0c0,0,0,0-0.1-0.1c-0.3-0.2-0.5-0.4-0.7-0.6c-0.1-0.1-0.2-0.3-0.3-0.4c-0.1-0.1-0.2-0.1-0.2-0.2
			c-0.2-0.2-0.2-0.5-0.2-0.8c-0.2-0.8,0-1.5,0.4-2.2c0.7-1,1.4-1.6,2.2-2.1l0,0l0,0c2.4-1.3,5.3-0.8,7.9-0.3c0.3,0.1,0.7,0.1,1,0.2
			c0.5-0.1,1-0.1,1.5-0.1c0.8,0,1.5,0.2,2,0.7c0.7,0.3,1.2,0.9,1.6,1.5c5.4-0.3,10.8-0.6,16.2-0.9c-10.4-1.1-20.8-2.1-31-3.1
			c-0.6-0.1-1.1-0.1-1.7-0.2c-0.4,0.5-0.9,0.8-1.6,1c-0.4,0.1-1,0.2-1.6,0.4c-2,0.5-4.7,1.2-7.1,1.2c-1.5,0-2.8-0.3-3.8-1
			c-0.6-0.4-1-1-1.3-1.7c-0.5-0.5-0.8-1.2-0.9-1.9c-0.3-0.3-0.3-0.6-0.3-0.8c0-0.2,0.1-0.3,0.2-0.4c0.2-2,1.8-3.6,3.9-3.6
			c0.4,0,0.7,0.1,1.1,0.2c1.9-0.1,4.1,0.3,6,0.7c0.9,0.2,1.8,0.4,2.3,0.4c0.7,0,1.3,0.3,1.7,0.6c0.9,0.3,1.5,1,1.8,1.8
			c1,0.1,1.9,0.2,2.9,0.3c13.9,1.3,28.1,2.7,42.3,4.4c-8.9-2.9-17.7-6.9-26.5-9.6c-0.5,0.6-1.2-0.2-2.2-0.2c0,0,0,0,0,0
			c-3.2,0-6.9,1-10-0.2c-0.9-0.4-2.1-0.5-3.1-1.3c-1.2-0.6-2-1.5-2-3c0-2.1,1.7-3.6,3.7-3.6c0.2,0,0.4,0.2,0.5,0.2
			c2-0.1,4.2,0.7,5.8,1.3l0.9,0.3c2.4,0.8,5.4,1.9,6.8,4.1c0.1,0.1,0.1,0.2,0.1,0.3c5.8,1.8,11.7,3.6,17.6,5.5
			c-10.2-5.3-20.5-10.5-30.6-15.6c-1.2-0.6-2.3-1.2-3.5-1.8c-0.2,0.2-0.5,0.4-0.7,0.5c-0.5,0.2-1,0.4-1.5,0.4
			c-0.7,0-1.4-0.2-1.9-0.8c-2.6-0.5-5.3-1.2-7.5-2.8c-1.6-1.1-2.6-3.1-2.5-5c0-1.6,0.8-3,2.2-3.9c2.2-1.4,4.9-0.7,7.9,2.2
			c1.1,1,2.6,2.5,3.8,4.2c0.5,0.3,1,0.8,1.2,1.4c0,0,0,0.1,0,0.1c1.9,1,3.9,2,5.8,2.9c8.8,4.4,17.7,8.9,26.6,13.5c0-0.1,0-0.2,0-0.2
			c0-0.4,0.1-1.1,0.5-1.9c0,0,0,0,0-0.1c-4-3.2-8-6.4-12-9.5c-0.4,0.2-0.8,0.2-1.2,0.2c-0.2,0-0.5,0-0.7-0.1
			c-4.7-1-8.8-3.8-12.3-8.3c-0.5-0.7-0.7-1.6-0.4-2.5c0.3-1,1.2-1.8,2.1-2.1c0.1,0,0.2,0,0.3,0c0.7-0.7,1.7-1.2,2.8-1.2
			c1.2,0,2.2,0.5,2.9,1.4c0.6,0.2,1.2,0.6,1.7,1c0.8,0.6,1.5,1.3,2.2,2c0.9,0.9,1.8,1.8,2.9,2.4c0.9,0.5,1.5,1.4,1.5,2.4
			c0,0.3,0,0.7-0.1,1c0,0.1,0,0.1,0,0.2c0,0,0,0,0,0c4.6,3.6,9.2,7.3,13.9,11c0.1,0,0.1,0,0.2,0c0.2,0,0.3,0,0.4,0.1
			c-7-8.3-14.2-16.6-21.2-24.6c-1.3-1.5-2.5-2.9-3.8-4.4c-0.1,0-0.2,0.1-0.3,0.1c-0.6,0-1.1-0.2-1.7-0.6l-1.1-0.8
			c-2-1.4-4-2.9-5.5-5c-1.1-1.6-1.5-3.6-1-5.3c0.4-1.5,1.5-2.7,2.9-3.4c3.3-1.6,6,1,7.3,3.7c0.6,1.2,1.1,2.5,1.6,4l0.8,2.5
			c0,0.1,0.1,0.2,0.1,0.3l0.2,0.4l0,0c0.1,0.5,0,1-0.2,1.5c1.6,1.8,3.1,3.6,4.7,5.4c8,9.2,16.1,18.5,24.1,28.1
			c-0.9-1.7-1.9-3.4-2.8-5.2c-0.2,0-0.3,0-0.5-0.1c-0.8-0.3-1.3-0.8-1.6-1.4c-0.2-0.6-1.2-1.6-2.1-2.5c-0.7-0.7-1.3-1.4-1.8-2
			c-0.7-0.9-1.1-1.8-1.5-2.6c-0.2-0.4-0.3-0.8-0.3-1.3c-0.2-1.1,0.1-2,0.7-2.8c-0.8-1.4-1.6-2.9-2.4-4.3c-0.4-0.8-0.9-1.6-1.3-2.4
			c-0.5,0-1-0.2-1.4-0.5c-0.5-0.3-1-0.6-1.5-0.9c-1.6-1-3.3-2-4.6-3.5c-1.4-1.5-2-3.4-1.7-5c0.2-1.4,1.1-2.6,2.6-3.4
			c1.2-0.7,2.4-0.8,3.6-0.5c2.9,0.9,5,4.6,6.5,7.4c0.4,0.7,0.7,1.3,1,1.8c0.6,0.9,0.6,1.9,0.2,2.8c-0.1,0.2-0.2,0.3-0.3,0.4
			c0.4,0.8,0.9,1.6,1.3,2.4c0.7,1.2,1.4,2.5,2.1,3.7c0.3,0,0.6,0.1,0.9,0.2c1,0.3,1.9,1.1,2.7,2.1c-0.7-1.8-1.5-3.6-2.2-5.4
			c-2-4.9-4-9.8-6-14.8c0,0,0,0,0-0.1c-0.6-0.9-1.4-2-2.3-3.1c-2.9-3.7-6.4-8.3-4.2-12.8c0-0.1,0.1-0.2,0.1-0.3
			c0.1-0.1,0.1-0.3,0.2-0.4c0.1-0.2,0.3-0.3,0.4-0.5c0,0,0,0.1,0,0.1c0.6-0.6,1.4-0.8,2.3-0.8c0,0,0,0,0,0c0,0,0.1-0.1,0.1-0.1
			c0.2,0,0.4,0,0.7,0c0,0,0.1,0,0.1,0c0.5,0.1,0.9,0.3,1.2,0.6c0.7,0.4,1.3,0.8,1.8,1.4l0.2-0.1l-0.1,0.1c1,1.1,1.7,2.6,2.1,4.4
			c0.3,1.3,0.9,2.5,1.5,3.7c0.8,1.6,1.6,3.2,1.9,5.2c0.1,0.9-0.2,1.7-0.7,2.2c-0.1,0.2-0.2,0.3-0.4,0.5c1.8,4.6,3.7,9.2,5.5,13.7
			c2.2,5.5,4.5,11,6.6,16.6c-0.5-2.9-1.1-5.8-1.6-8.7c-0.6-3-1.1-6-1.7-9.1c-0.9-0.4-1.6-1.2-1.7-2.3c-0.1-0.2-0.2-0.5-0.2-0.7
			c-0.1-0.2-0.1-0.5-0.2-0.6l-0.8-2.5c-0.5-1.5-1-3-1.3-4.6c-0.3-1.8-0.4-4.3,0.8-6c0.2-0.2,0.4-0.4,0.7-0.5c0,0,0.1-0.1,0.1-0.1
			c0.2-0.2,0.4-0.3,0.7-0.4c0.5-0.3,1.1-0.5,1.7-0.5c0.2,0,0.4,0.1,0.6,0.1c2.7,0.2,4.7,2.6,5.3,6.7c0.2,1.5,0.3,3.1,0.3,5.2l0,2.5
			c0,0.2,0,0.5,0,0.7c0.2,1.1-0.2,2.1-1,2.8c-0.1,0.1-0.2,0.1-0.3,0.2c0.5,2.9,1,5.8,1.6,8.7c0.3,1.5,0.6,3,0.8,4.5
			c-0.4-10-0.8-19.9-1.3-29.7c-0.1-2.6-0.2-5.2-0.4-7.8c-1.8-1.6-2.8-4.8-3.3-7.6c-1.1-6.6,1.2-8.7,3.4-9.4c1.7-0.5,3.1-0.3,4.2,0.6
			c2.9,2.3,2.6,8.8,2.4,12.6c0,0.7-0.1,1.2-0.1,1.7c0,1.5-1,2.4-2,2.8c0.1,2.3,0.2,4.6,0.3,6.9c0.5,10.9,1,22.1,1.4,33.3
			c1.1-6.6,2.1-13.2,3.1-19.6c0.1-0.8,0.3-1.7,0.4-2.5c-0.6-0.5-1-1.2-1-2c0-0.9-0.2-1.7-0.4-2.6c-0.3-1.4-0.6-2.8-0.4-4.2
			c0.2-1.8,1-3.2,2.1-4c1-0.8,2.3-1,3.8-0.8c1.7,0.3,2.9,1.1,3.6,2.3c1.6,2.8,0.2,7.2-1.4,11.1c-0.4,0.9-1.1,1.5-1.8,1.8
			c-0.1,0.4-0.1,0.8-0.2,1.2c-1.3,8.1-2.6,16.4-4,24.7c4.4-11.6,8.6-23.4,12.7-34.8c1-2.7,2-5.5,2.9-8.2c-0.3-0.6-0.4-1.3-0.2-2.1
			c-0.1-0.3-0.1-0.6-0.1-0.9c0-2.3,0.9-9.5,4.1-11.7c1.1-0.7,2.3-0.9,3.6-0.4c1.7,0.6,3,1.8,3.7,3.5c0.8,1.7,0.7,3.7,0,5.5
			c-1,2.4-2.9,4.1-4.7,5.7c-0.5,0.4-1,0.9-1.4,1.3c-0.2,0.2-0.4,0.3-0.7,0.5c-0.9,2.5-1.8,5-2.7,7.5c-3.9,10.9-7.9,22-12,33
			c3.6-5.8,7.1-11.6,10.6-17.3c-0.3-0.6-0.5-1.3-0.3-2.2c0.6-2.5,2-5,3.2-6.9c0.9-1.5,2-3.1,3.5-4.2c0.7-1,1.9-1.8,3.2-1.8
			c2.2,0,4,1.8,4,4c0,1.1-0.5,2.1-1.2,2.8c-0.1,0.5-0.3,1-0.5,1.5c0.2-0.3,0.4-0.5,0.6-0.8c0.8-1,1.7-2.1,2.5-3.1
			c-0.1-0.7,0-1.4,0.4-2c0.9-1.3,1.6-3,2.4-4.8c2-4.6,4.3-9.9,10.9-8.8c1,0.2,2,1.2,2.2,2.2c0.7,3.6-1.7,6.7-3.5,9
			c-2.1,2.8-4.3,5.1-6.5,7c-0.6,0.5-1.3,0.8-2,0.8c-0.3,0-0.7-0.1-1-0.2c-0.1,0-0.2-0.1-0.3-0.2c-0.3,0.4-0.6,0.7-0.9,1.1
			c-8.2,10.2-16.6,20.6-25.3,30.8c6.5-5.2,13-10.5,19.3-15.7c0.1-0.1,0.2-0.2,0.3-0.3c0-0.2-0.1-0.4,0-0.6c0.1-0.9,0.6-1.7,1.4-2.2
			c0.1-0.2,0.2-0.3,0.3-0.4c0.6-0.6,1.1-1.2,1.6-1.8c0.9-1,1.8-2,2.8-3c1.7-1.6,5.1-4.9,8-2.8c1.6,1.1,1.9,2.5,2,3.5
			c0,1.8-1.1,3.7-2.9,5.1c-2.1,1.6-4.5,2.7-6.8,3.8c-0.6,0.3-1.3,0.6-1.9,0.9c-0.5,0.2-0.9,0.3-1.4,0.3c-0.2,0-0.3,0-0.5-0.1
			c-3.8,3.1-7.6,6.3-11.5,9.4c0.7-0.4,1.4-0.8,2-1.1l0.2-0.1c1.4-0.7,3.1-1.6,4.8-1.8c0.5-0.3,1-0.5,1.5-0.5c0.6,0,1,0.2,1.5,0.5
			c4.3-2.3,8.6-4.7,12.9-7c0.1-0.6,0.3-1.2,0.7-1.7c2-2.5,4-4.5,6-6.1c1.2-1,2.6-1.6,3.9-2.2c0.4-0.2,0.7-0.3,1.1-0.5
			c2.7-1.3,7.6-3.6,9.9,0.5c0.5,0.9,0.6,1.9,0.3,2.8c-0.7,2.1-3.3,3.6-5.5,4.6c-4,1.9-7.8,3.6-11.4,6c-0.5,0.4-1.1,0.5-1.6,0.5
			c-0.7,0-1.3-0.4-1.9-0.8c-4.3,2.4-8.7,4.7-13.1,7.1c0.1,0.8,0.1,1.6-0.3,2.3c-0.7,1.4-2.2,2-3.2,2.4c-1,0.4-1.9,0.7-2.9,1l-1,0.3
			c-1.6,0.5-2,0.7-2.1,0.8c-0.5,0.6-1.2,1-2,1c-0.1,0-0.3,0-0.4,0c0,0,0,0-0.1,0c-0.5,0-1-0.2-1.4-0.5c-2.5,1.3-5,2.6-7.5,3.9
			c8-2.3,16-4.7,23.8-7.1c0.2-0.7,0.6-1.3,1.2-1.8c2.6-1.8,5.4-3.3,8.2-4.6c1.2-0.5,2.8-0.7,4.2-0.9c0.5,0,0.9-0.1,1.3-0.2
			c1.7-0.2,5.1-0.8,7.1,0.8c0.8,0.6,1.4,1.5,1.5,2.7c0.6,4.3-4.8,5.2-6.5,5.5l-1.6,0.3c-4,0.6-7.7,1.2-11.5,2.4
			c-0.3,0.1-0.6,0.2-1,0.2c-0.7,0-1.3-0.2-1.8-0.7c-0.2-0.2-0.3-0.5-0.5-0.7c-8,2.4-16.1,4.9-24.2,7.2c4.9-0.5,9.7-1,14.6-1.5
			c0.2-0.4,0.3-0.8,0.6-1.1c0.7-0.8,1.8-1.1,2.9-0.8c0.5,0.1,1.5-0.3,2.1-0.6c0.3-0.1,0.5-0.2,0.7-0.3l0.8-0.3
			c1.3-0.4,2.6-0.9,4-1.1c2.5-0.4,4.4,0,5.7,1.1l0.5-0.2l-0.2,0.4c0.2,0.2,0.4,0.5,0.7,0.8c3.6-0.4,7.2-0.9,10.7-1.3
			c0.8-0.1,1.5-0.2,2.3-0.3c0.1-0.2,0.2-0.4,0.4-0.6c2.1-1.9,8.6-5.2,13.1-4.5c1.7,0.3,3,1.1,3.7,2.4c0.7,1.2,0.8,2.5,0.2,3.6
			c-0.1,0.2-0.2,0.3-0.3,0.4c-0.4,1.2-1.4,2-2.7,2.3c-0.6,0.3-1.3,0.6-1.9,0.7c-1.3,0.2-2.6,0.3-3.9,0.4c-1.8,0.1-3.4,0.1-4.9,0.6
			c-0.3,0.1-0.7,0.2-1,0.2c-0.6,0-1.3-0.2-1.8-0.7c-0.4-0.4-0.8-0.9-0.9-1.5c-0.1-0.1-0.1-0.2-0.2-0.3c-0.6,0.1-1.3,0.2-1.9,0.2
			c-3.3,0.4-6.6,0.8-9.9,1.2c-0.1,1.2-1,2.2-2.1,2.7c-2.5,0.9-5.1,1.2-7.8,1.2c-1.1,0-2.2,0-3.3-0.1c-1,0-1.9-0.1-2.8-0.1
			c-1.2,0-2.1-0.7-2.5-1.5c-4.8,0.5-9.6,1-14.5,1.5c10.3,1.1,20.6,1.9,30.6,2.7c0,0,0,0,0.1,0c0-0.2,0-0.4,0.1-0.5
			c0.3-0.9,1.1-1.5,2.1-1.7c0.4-0.1,0.7,0,1-0.1c2.5-0.9,6-1.3,8.6-0.3c1.2,0.5,2,1.3,2.5,2.3c0.6,0.6,1,1.4,1,2.3
			c0,1.5-1.2,2.8-2.6,3c-0.7,0.4-1.5,0.7-2.4,0.7c-0.4,0-0.8,0-1.1-0.1c-1.1-0.2-2.2-0.6-3.2-1l-0.8-0.3c-0.3-0.1-0.6-0.2-1-0.3
			c-1.4,0.6-2.6,0.1-3.4-0.9c-0.8-0.1-1.5-0.1-2.3-0.2c-5.5-0.5-11.1-0.9-16.8-1.4c10,2.6,20.1,5,29.9,7.4c0.7,0.2,1.4,0.3,2.1,0.5
			c0.5-0.7,1.3-1.2,2.3-1.2c1.1,0,2.1,0,3.2-0.1c2.4-0.1,4.9-0.2,7.4,0.1c1.7,0.2,2.9,1.4,2.9,3c0,1-0.1,1.9-0.3,2.7c0,0,0,0,0,0.1
			c0,0,0,0.1,0,0.1l0.1,0.2l-0.1,0.2c-0.1,0.9-0.6,1.6-1.3,2.2c-0.1,0.1-0.2,0.2-0.2,0.3c-0.9,0.8-2,1.2-3.4,1.2c-0.2,0-0.5,0-0.7,0
			c-1.8-0.2-3.4-0.9-4.7-1.5l-0.2-0.1c-0.5-0.2-1.8-0.8-2.1-0.9c-1.7-0.1-2.6-1.3-2.8-2.6c0,0,0-0.1-0.1-0.1c0-0.1-0.1-0.1-0.1-0.2
			c-1.4-0.3-2.8-0.7-4.2-1c-13-3.1-26.4-6.4-39.7-9.9c7.3,3.6,14.5,7.1,21.7,10.5c0.8-0.8,2-1.2,3.2-0.7c0.2,0,0.5,0.1,0.8,0.2
			l2.5,0.5c1.5,0.3,3,0.6,4.5,1c1.6,0.5,6.5,2,6.2,6c0,0.1-0.1,0.2-0.1,0.3c0.3,0.5,0.5,1.1,0.5,1.7c0,2.1-1.7,3.7-3.7,3.7
			c-1.3,0-2.4-0.7-3.1-1.7c-0.6-0.1-1.2-0.3-1.8-0.5c-1.8-0.7-3.4-1.8-5-2.8c-1-0.6-2-1.3-3.1-1.8c-1-0.5-1.4-1.3-1.5-2.2
			c0,0,0-0.1-0.1-0.1c-4.8-2.2-9.6-4.5-14.5-6.9c9.1,6.5,18.3,12.9,27.3,19.2c0.4,0.3,0.9,0.6,1.3,0.9c0.3,0,0.6-0.1,1,0
			c1.8,0.4,8.4,2.5,11.2,6c1,0.7,1.8,1.9,1.8,3.2c0,1.3-0.7,2.5-1.7,3.2c-1.1,1.3-2.3,1.9-3.7,1.9c-0.1,0-0.2,0-0.4,0
			c-3.9-0.3-7.7-5.5-9.8-8.9c-0.9-0.6-1.2-1.6-1.1-2.6c-0.7-0.5-1.3-0.9-2-1.4c-10.4-7.2-21-14.6-31.5-22.2
			c6.2,6.7,12.5,13.3,18.6,19.8c0.1,0.1,0.2,0.2,0.3,0.4c0.1,0.1,0.2,0.1,0.4,0.2l0.4,0.3c4.4,2.9,10.2,7.1,9.9,10.5
			c-0.1,0.8-0.5,2-2.3,2.8c-0.7,0.3-1.5,0.5-2.2,0.5c-0.2,0-0.4-0.1-0.6-0.1c-0.1,0-0.2,0.1-0.3,0.1c-1.6,0-3-0.9-3.7-2.2
			c-0.5-0.5-0.9-1-1.4-1.5c-0.9-1.2-1.8-2.4-2.9-4.1l-0.4-0.6c-0.3-0.5-0.6-0.9-0.9-1.2c-1.2-0.9-1.4-2.3-0.6-3.5
			c-4.4-4.6-8.8-9.2-13.2-13.9c6,9.6,12.1,19.1,18.1,28.3c1.7,2.6,3.4,5.2,5,7.8c3.2,2.1,7.3,5.1,7.4,8.3c0,1.5-0.8,2.8-2.4,4
			c-0.8,0.6-1.6,0.8-2.5,0.8c-0.3,0-0.6,0-0.8-0.1c-2.4-0.5-4.2-3.1-4.8-4.1c-0.8-1.4-1.5-2.7-2.2-4.3l-0.1-0.2
			c-0.2-0.4-0.4-0.8-0.6-1.2c-0.7-0.6-1-1.3-1.1-2c-0.1-0.5-0.1-1.1,0.1-1.7c0.2-0.5,0.4-0.9,0.7-1.2c-1-1.5-2-3.1-3-4.6
			c-6.4-9.9-13-20.1-19.4-30.4c2.2,5.9,4.5,11.8,6.8,17.7c0.2,0.3,0.4,0.7,0.5,1.1c0,0.2,0.1,0.3,0.1,0.5c0,0.1,0,0.1,0.1,0.2
			c0.7,1.3,1.6,2.5,2.6,3.8c1.1,1.4,2.2,2.9,3,4.5c0.4,0.7,2.2,4.6,0.7,7.1c-0.1,0.1-0.2,0.3-0.3,0.4l-0.3,0.5
			c-0.1,0.2-0.3,0.3-0.5,0.4c-0.6,0.6-1.3,1-2.2,1c-0.6,0-1.2-0.2-1.7-0.6c-4.6-1.2-6.1-8.9-6.9-13.8c-0.1-0.5-0.2-1.1-0.3-1.5
			c-0.1-0.3-0.2-0.7-0.2-1c-0.2-1,0.1-1.8,0.5-2.4c-1.9-5-3.9-10-5.8-15.1c2.5,12.3,5.1,24.6,7.8,36.6c0.3,1.2,0.5,2.4,0.8,3.6
			c0.2,0.2,0.3,0.4,0.4,0.7c0.2,0.5,0.3,0.9,0.4,1.4l1.3,2.4c0.8,1.5,1.7,3,2.4,4.6c0.8,2,1.6,4.2,0.8,6c-0.4,0.9-1.2,1.6-2.3,2
			c-0.5,0.2-1,0.2-1.5,0.2c-0.7,0-1.5-0.2-2.2-0.6c-2-1.1-3.3-3.6-3.8-5.6c-0.3-1.3-0.3-2.7-0.4-4.1c0-1-0.1-2-0.2-2.9
			c-0.1-0.3-0.3-0.6-0.4-0.9c-0.2-0.6-0.3-1.1-0.2-1.6c-0.1-0.8,0.2-1.5,0.7-2.1c-0.2-0.9-0.4-1.7-0.6-2.6
			c-2.9-13.3-5.9-27-8.6-40.7c-1.3,10.5-2.8,21.3-2.7,30.7c0,3.7,0.1,7.3,0.1,10.9c0.3,0.6,0.6,1.2,0.6,1.9c0,0.1,0,0.1,0,0.2
			c0.2,0.6,0.4,1.2,0.6,1.8c0.9,2.4,1.8,4.8,1.6,7.5c-0.1,0.9-0.4,3.9-2.2,5.2c-0.5,0.4-1.2,0.6-1.8,0.6c-0.4,0-0.7-0.1-1.1-0.2
			c-4.9-1.4-4.3-6.9-3.8-11.2c0.1-0.8,0.2-1.5,0.2-2.2c-0.3-0.5-0.5-1.1-0.5-1.7c0-0.5,0.1-1,0.4-1.5c0,0,0-0.1,0-0.1
			c-0.2-1.3,0.5-2.3,1.4-2.9c0-2.7-0.1-5.3-0.1-8c-0.1-8.9,1.2-18.9,2.4-28.7c-0.4,0.9-0.8,1.8-1.1,2.7c-2.2,6-4.3,11.9-6.4,17.8
			c-3.8,11.7-6.9,23.8-10,36.5c8.9,2.6,18.3,4,28,4c55.2,0,100-44.8,100-100C200,44.8,155.2,0,100,0z"/>
		<linearGradient id="SVGID_6_" gradientUnits="userSpaceOnUse" x1="84.2095" y1="96.2832" x2="83.1805" y2="100.1233">
			<stop  offset="0" style="stop-color:#E81B8C"/>
			<stop  offset="1" style="stop-color:#FFB700"/>
		</linearGradient>
		<path class="st5" d="M82.5,96.7c0.7,1.3,1.4,2.5,2.1,3.8c-0.6-1.5-1.2-3.1-1.8-4.6C82.8,96.2,82.7,96.5,82.5,96.7z"/>
	</g>
</g>
</svg>
