<?xml version="1.0" encoding="utf-8"?>
<!-- Generator: Adobe Illustrator 18.1.1, SVG Export Plug-In . SVG Version: 6.00 Build 0)  -->
<svg version="1.1" id="Layer_1" xmlns="http://www.w3.org/2000/svg" xmlns:xlink="http://www.w3.org/1999/xlink" x="0px" y="0px"
	 viewBox="0 0 30 30" enable-background="new 0 0 30 30" xml:space="preserve">
<g>
	<g>
		<path fill="none" stroke="#E5E5E5" stroke-width="2" stroke-miterlimit="10" d="M18.6,21.4v-1.9c2.5-2.3,5.4-5.8,5.4-8.6
			C24,5.9,20,2,15,2c-5,0-9,3.9-9,8.8c0,2.8,2.9,6.4,5.4,8.6v1.9"/>
		<path fill="none" stroke="#E5E5E5" stroke-width="2" stroke-miterlimit="10" d="M11.4,24.3v0.1c0,1.9,1.6,3.5,3.6,3.5
			c2,0,3.6-1.6,3.6-3.5v-0.1"/>
	</g>
	<g>
		
			<polyline fill="none" stroke="#E5E5E5" stroke-width="2" stroke-linecap="round" stroke-linejoin="round" stroke-miterlimit="10" points="
			12,10.6 13,9.6 14,8.6 15,9.6 16,10.6 		"/>
		
			<polyline fill="none" stroke="#E5E5E5" stroke-width="2" stroke-linecap="round" stroke-linejoin="round" stroke-miterlimit="10" points="
			16,10.6 17,9.6 18,8.6 		"/>
	</g>
</g>
</svg>
