<?xml version="1.0" encoding="utf-8"?>
<!-- Generator: Adobe Illustrator 18.1.1, SVG Export Plug-In . SVG Version: 6.00 Build 0)  -->
<svg version="1.1" id="Layer_1" xmlns="http://www.w3.org/2000/svg" xmlns:xlink="http://www.w3.org/1999/xlink" x="0px" y="0px"
	 viewBox="0 0 30 30" enable-background="new 0 0 30 30" xml:space="preserve">
<g>
	<g>
		<path fill="#E5E5E5" d="M15.9,4C15.9,4,15.9,4.1,15.9,4l0.8,2.8c0.1,0.3,0.3,0.5,0.6,0.6l1.6,0.7c0.1,0.1,0.3,0.1,0.4,0.1
			c0.2,0,0.3,0,0.5-0.1l2.4-1.3c0,0,0.4,0.3,0.7,0.6C23.1,7.6,23.4,8,23.4,8l-1.4,2.4c-0.1,0.3-0.2,0.6,0,0.8l0.7,1.6
			c0.1,0.3,0.4,0.5,0.6,0.6l2.6,0.7l0,1.8l-2.7,0.7c-0.3,0.1-0.5,0.3-0.6,0.6L22,18.9c-0.1,0.3-0.1,0.6,0,0.9l1.4,2.4
			c0,0-0.3,0.4-0.6,0.7c-0.3,0.3-0.7,0.6-0.7,0.6l-2.4-1.4c-0.1-0.1-0.3-0.1-0.5-0.1c-0.1,0-0.3,0-0.4,0.1l-1.6,0.7
			c-0.3,0.1-0.5,0.4-0.6,0.6L15.9,26c0,0,0,0,0,0h-1.8c0,0,0,0,0,0l-0.7-2.7c-0.1-0.3-0.3-0.5-0.6-0.6L11.1,22
			c-0.1-0.1-0.3-0.1-0.4-0.1c-0.2,0-0.3,0-0.5,0.1l-2.4,1.3c0,0-0.4-0.3-0.7-0.6c-0.3-0.3-0.6-0.7-0.6-0.7l1.4-2.4
			c0.1-0.3,0.1-0.6,0-0.8l-0.7-1.6c-0.1-0.3-0.4-0.5-0.6-0.6L4,16l0-1.8l2.6-0.7c0.3-0.1,0.6-0.3,0.6-0.6L8,11.2
			c0.1-0.3,0.1-0.6,0-0.9L6.6,8c0,0,0,0,0,0c0,0,0.3-0.4,0.6-0.7C7.5,7,7.9,6.7,7.9,6.7L10.3,8c0.1,0.1,0.3,0.1,0.5,0.1
			c0.1,0,0.3,0,0.4-0.1l1.6-0.7c0.3-0.1,0.5-0.4,0.6-0.7l0.7-2.7c0,0,0-0.1,0-0.1H15.9 M15.9,2h-1.7c-0.6,0-1.1,0.2-1.5,0.6
			c-0.2,0.2-0.4,0.5-0.5,0.9l-0.6,2.1L10.8,6L8.9,4.9c-0.3-0.2-0.6-0.3-1-0.3c-0.1,0-0.3,0-0.4,0C7.2,4.8,6.8,4.9,5.8,5.9
			C5.5,6.1,5.2,6.5,5.1,6.6l0,0C4.6,7.1,4.5,7.9,4.7,8.5c0,0.1,0,0.1,0.1,0.2c0,0.1,0.1,0.2,0.1,0.3l1.1,1.9l-0.3,0.7l-2.1,0.6
			c-0.9,0.2-1.5,1-1.5,1.9L2,16c0,0.9,0.6,1.7,1.5,1.9l2.1,0.6l0.3,0.7l-1.1,1.9c-0.3,0.4-0.3,1-0.2,1.5c0.1,0.5,0.3,0.8,1.1,1.6
			c0,0,0,0,0,0c0.3,0.3,0.7,0.7,0.8,0.7c0.4,0.3,0.8,0.4,1.2,0.4c0.3,0,0.7-0.1,1-0.3l2-1.1l0.8,0.3l0.6,2.1l0,0
			c0.1,0.4,0.3,0.8,0.7,1c0.4,0.3,0.8,0.5,1.3,0.5h1.8c0.5,0,1.1-0.2,1.4-0.6c0.1-0.1,0.3-0.3,0.4-0.5c0.1-0.1,0.1-0.2,0.1-0.4
			l0.6-2.1l0.8-0.3l1.9,1.1c0.3,0.2,0.6,0.3,1,0.3c0.1,0,0.2,0,0.3,0c0.4-0.1,0.8-0.2,1.8-1.2c0.8-0.8,0.9-1.1,1-1.3
			c0.3-0.6,0.2-1.3-0.1-1.8l-1.1-1.9l0.3-0.7l2.1-0.6c0.9-0.2,1.5-1,1.5-1.9l0-1.8c0-0.9-0.6-1.7-1.5-1.9l-2.1-0.6l-0.3-0.7L25.2,9
			c0.2-0.4,0.3-0.9,0.2-1.4c-0.1-0.5-0.3-0.8-1.2-1.7c-0.2-0.2-0.5-0.4-0.8-0.7c-0.4-0.3-0.8-0.5-1.3-0.5c-0.3,0-0.7,0.1-1,0.3
			l-1.9,1.1l-0.8-0.3l-0.6-2.2c-0.1-0.3-0.3-0.7-0.5-1C17,2.2,16.4,2,15.9,2L15.9,2z"/>
	</g>
	<g>
		<path fill="#E5E5E5" d="M15,12.6c1.3,0,2.4,1.1,2.4,2.4s-1.1,2.4-2.4,2.4s-2.4-1.1-2.4-2.4S13.7,12.6,15,12.6 M15,10.6
			c-2.4,0-4.4,2-4.4,4.4s2,4.4,4.4,4.4s4.4-2,4.4-4.4S17.4,10.6,15,10.6L15,10.6z"/>
	</g>
</g>
</svg>
