<?xml version="1.0" encoding="utf-8"?>
<!-- Generator: Adobe Illustrator 19.2.1, SVG Export Plug-In . SVG Version: 6.00 Build 0)  -->
<svg version="1.1" id="Layer_1" xmlns="http://www.w3.org/2000/svg" xmlns:xlink="http://www.w3.org/1999/xlink" x="0px" y="0px"
	 viewBox="0 0 24.8 26.8" style="enable-background:new 0 0 24.8 26.8;" xml:space="preserve">
<style type="text/css">
	.st0{fill:none;stroke:#A3A3A3;stroke-width:2;stroke-linecap:round;stroke-linejoin:round;stroke-miterlimit:10;}
</style>
<g>
	<path class="st0" d="M20.4,11.4h-4c-1.1,0-2-0.9-2-2v-4c0-1.1,0.9-2,2-2h4c1.1,0,2,0.9,2,2v4C22.4,10.5,21.5,11.4,20.4,11.4z"/>
	<path class="st0" d="M20.4,23.4h-4c-1.1,0-2-0.9-2-2v-4c0-1.1,0.9-2,2-2h4c1.1,0,2,0.9,2,2v4C22.4,22.5,21.5,23.4,20.4,23.4z"/>
	<path class="st0" d="M8.4,11.4h-4c-1.1,0-2-0.9-2-2v-4c0-1.1,0.9-2,2-2h4c1.1,0,2,0.9,2,2v4C10.4,10.5,9.5,11.4,8.4,11.4z"/>
	<path class="st0" d="M8.4,23.4h-4c-1.1,0-2-0.9-2-2v-4c0-1.1,0.9-2,2-2h4c1.1,0,2,0.9,2,2v4C10.4,22.5,9.5,23.4,8.4,23.4z"/>
</g>
</svg>
