<?xml version="1.0" encoding="utf-8"?>
<!-- Generator: Adobe Illustrator 18.1.1, SVG Export Plug-In . SVG Version: 6.00 Build 0)  -->
<svg version="1.1" id="Layer_1" xmlns="http://www.w3.org/2000/svg" xmlns:xlink="http://www.w3.org/1999/xlink" x="0px" y="0px"
	 viewBox="0 0 28.6 28.6" enable-background="new 0 0 28.6 28.6" xml:space="preserve">
<g>
	<path fill="none" stroke="#AFAFAF" stroke-width="2" stroke-linecap="round" stroke-linejoin="round" stroke-miterlimit="10" d="
		M5.3,21.4c-2.5,0.6-4,1.5-4,2.5c0,0.8,1.1,1.6,2.9,2.2"/>
	<path fill="none" stroke="#AFAFAF" stroke-width="2" stroke-linecap="round" stroke-linejoin="round" stroke-miterlimit="10" d="
		M24.4,26.1c1.8-0.6,2.9-1.4,2.9-2.2c0-1-1.6-1.9-4-2.5"/>
	<g>
		
			<ellipse fill="none" stroke="#AFAFAF" stroke-width="2" stroke-linecap="round" stroke-linejoin="round" stroke-miterlimit="10" cx="14.3" cy="10.1" rx="3.3" ry="3.4"/>
		<path fill="none" stroke="#AFAFAF" stroke-width="2" stroke-linecap="round" stroke-linejoin="round" stroke-miterlimit="10" d="
			M14.3,1.2c-4.9,0-8.8,4-8.8,8.9c0,6.6,7.3,13.3,8.8,13.3c1.6,0,8.8-6.7,8.8-13.3C23.1,5.2,19.1,1.2,14.3,1.2z"/>
	</g>
	<g>
		<g>
			<path fill="none" stroke="#AFAFAF" stroke-width="2" stroke-linecap="round" stroke-linejoin="round" d="M6.9,26.8
				c0.6,0.1,1.3,0.2,2,0.3"/>
			
				<path fill="none" stroke="#AFAFAF" stroke-width="2" stroke-linecap="round" stroke-linejoin="round" stroke-dasharray="3.6192,3.6192" d="
				M12.5,27.4c0.6,0,1.2,0,1.8,0c1.3,0,2.5,0,3.6-0.1"/>
			<path fill="none" stroke="#AFAFAF" stroke-width="2" stroke-linecap="round" stroke-linejoin="round" d="M19.7,27.1
				c0.7-0.1,1.4-0.2,2-0.3"/>
		</g>
	</g>
</g>
</svg>
