<?xml version="1.0" encoding="utf-8"?>
<!-- Generator: Adobe Illustrator 18.1.1, SVG Export Plug-In . SVG Version: 6.00 Build 0)  -->
<svg version="1.1" id="Layer_1" xmlns="http://www.w3.org/2000/svg" xmlns:xlink="http://www.w3.org/1999/xlink" x="0px" y="0px"
	 viewBox="0 0 36 34" enable-background="new 0 0 36 34" xml:space="preserve">
<g>
	<g>
		<g>
			<path fill="#5E1DC3" d="M29.8,12.1l1.8,1.8l-9.2,9.2l-2.6,0.8l0.8-2.6L29.8,12.1 M29.8,8.3l-1.9,1.9l-9.3,9.2l-0.4,0.4L18,20.4
				L17.2,23l-1.8,5.1l5.1-1.8l2.6-0.8l0.5-0.1l0.4-0.4l9.2-9.2l1.9-1.9L33.3,12l-1.8-1.8L29.8,8.3L29.8,8.3z"/>
		</g>
	</g>
	<line fill="#FFFFFF" stroke="#5E1DC3" stroke-width="2" stroke-miterlimit="10" x1="1.6" y1="8.3" x2="21.1" y2="8.3"/>
	<line fill="#FFFFFF" stroke="#5E1DC3" stroke-width="2" stroke-miterlimit="10" x1="1.6" y1="17" x2="11.2" y2="17"/>
	<line fill="#FFFFFF" stroke="#5E1DC3" stroke-width="2" stroke-miterlimit="10" x1="1.6" y1="25.7" x2="11.2" y2="25.7"/>
</g>
</svg>
