<?xml version="1.0" encoding="utf-8"?>
<!-- Generator: Adobe Illustrator 15.0.0, SVG Export Plug-In  -->
<!DOCTYPE svg PUBLIC "-//W3C//DTD SVG 1.1//EN" "http://www.w3.org/Graphics/SVG/1.1/DTD/svg11.dtd" [
	<!ENTITY ns_flows "http://ns.adobe.com/Flows/1.0/">
]>
<svg version="1.1"
	 xmlns="http://www.w3.org/2000/svg" xmlns:xlink="http://www.w3.org/1999/xlink" xmlns:a="http://ns.adobe.com/AdobeSVGViewerExtensions/3.0/"
	 x="0px" y="0px" width="113px" height="113px" viewBox="0 0 113 113" overflow="visible" enable-background="new 0 0 113 113"
	 xml:space="preserve">
<defs>
</defs>
<polygon fill="#E5E5E4" points="47.914,67.724 70.888,55.818 47.91,43.83 "/>
<path fill="#E5E5E4" d="M102.049,0H11.338C5.076,0,0,5.076,0,11.338v90.708c0,6.262,5.076,11.339,11.338,11.339h90.711
	c6.262,0,11.338-5.076,11.338-11.339V11.338C113.387,5.077,108.311,0,102.049,0z M99.213,59.906c0,6.881-0.849,13.762-0.849,13.762
	s-0.831,5.861-3.382,8.441c-3.232,3.388-6.857,3.404-8.52,3.603c-11.9,0.86-29.77,0.887-29.77,0.887s-22.109-0.202-28.914-0.854
	c-1.893-0.355-6.142-0.247-9.376-3.635c-2.55-2.58-3.38-8.441-3.38-8.441s-0.85-6.881-0.85-13.762v-6.452
	c0-6.882,0.85-13.764,0.85-13.764s0.83-5.86,3.38-8.441c3.234-3.387,6.858-3.403,8.521-3.602c11.9-0.861,29.75-0.861,29.75-0.861
	h0.038c0,0,17.851,0,29.751,0.861c1.662,0.198,5.287,0.215,8.52,3.602c2.551,2.581,3.382,8.441,3.382,8.441
	s0.849,6.882,0.849,13.764V59.906z"/>
</svg>
