<?xml version="1.0" encoding="utf-8"?>
<!-- Generator: Adobe Illustrator 16.0.0, SVG Export Plug-In . SVG Version: 6.00 Build 0)  -->
<!DOCTYPE svg PUBLIC "-//W3C//DTD SVG 1.1//EN" "http://www.w3.org/Graphics/SVG/1.1/DTD/svg11.dtd">
<svg version="1.1" id="Layer_1" xmlns="http://www.w3.org/2000/svg" xmlns:xlink="http://www.w3.org/1999/xlink" x="0px" y="0px"
	 width="32px" height="32px" viewBox="0 0 32 32" enable-background="new 0 0 32 32" xml:space="preserve">
<g>
	<path fill="#F7F8F8" d="M28.401,7.841h-4.935l-2.87-2.876c-0.004-0.004-0.008-0.006-0.01-0.01l-0.005-0.004l0,0
		c-0.432-0.427-1.024-0.69-1.678-0.69h-5.968c-0.693,0-1.312,0.3-1.748,0.771l-0.002-0.007l-2.81,2.816H3.338
		c-1.318,0-2.387,1.069-2.387,2.388v14.321c0,1.317,1.069,2.387,2.387,2.387h25.063c1.318,0,2.388-1.069,2.388-2.387V10.229
		C30.789,8.91,29.72,7.841,28.401,7.841z M29.596,24.551c0,0.656-0.536,1.194-1.194,1.194H3.338c-0.658,0-1.193-0.538-1.193-1.194
		V10.229c0-0.659,0.536-1.193,1.193-1.193h5.038h0.495l0.35-0.352l1.444-1.447l0.029,0.088l1.37-1.481
		c0.232-0.251,0.542-0.389,0.872-0.389h5.968c0.314,0,0.613,0.123,0.846,0.353l2.87,2.877l0.35,0.351h0.497h4.935
		c0.658,0,1.194,0.534,1.194,1.193V24.551L29.596,24.551z"/>
	<path fill="#F7F8F8" d="M15.87,9.036c-4.284,0-7.758,3.471-7.758,7.756c0,4.284,3.474,7.758,7.758,7.758
		c4.285,0,7.758-3.475,7.758-7.758C23.628,12.507,20.154,9.036,15.87,9.036z M15.87,23.357c-3.619,0-6.564-2.946-6.564-6.565
		c0-3.62,2.945-6.563,6.564-6.563c3.62,0,6.565,2.943,6.565,6.563C22.435,20.411,19.489,23.357,15.87,23.357z"/>
	<path fill="#F7F8F8" d="M15.87,11.423c-2.967,0-5.371,2.403-5.371,5.37c0,2.965,2.404,5.372,5.371,5.372
		c2.966,0,5.372-2.406,5.372-5.372C21.241,13.826,18.836,11.423,15.87,11.423z M15.87,20.97c-2.303,0-4.177-1.875-4.177-4.177
		c0-2.304,1.874-4.176,4.177-4.176s4.176,1.872,4.176,4.176C20.046,19.095,18.173,20.97,15.87,20.97z"/>
</g>
</svg>
