<?xml version="1.0" encoding="UTF-8"?>
<svg width="20px" height="28px" viewBox="0 0 20 28" version="1.1" xmlns="http://www.w3.org/2000/svg" xmlns:xlink="http://www.w3.org/1999/xlink">
    <!-- Generator: Sketch 43.2 (39069) - http://www.bohemiancoding.com/sketch -->
    <title>ideas</title>
    <desc>Created with Sketch.</desc>
    <defs></defs>
    <g id="Page-1" stroke="none" stroke-width="1" fill="none" fill-rule="evenodd">
        <g id="ideas" transform="translate(1.000000, 1.000000)" stroke-width="2" stroke="#000000">
            <g id="Group">
                <path d="M12.6,19.45 L12.6,17.55 C15.1,15.25 18,11.75 18,8.95 C18,3.95 14,0.05 9,0.05 C4,0.05 0,3.95 0,8.85 C0,11.65 2.9,15.25 5.4,17.451 L5.4,19.35" id="Shape"></path>
                <path d="M5.4,22.35 L5.4,22.451 C5.4,24.35 7,25.951 9,25.951 C11,25.951 12.6,24.35 12.6,22.451 L12.6,22.35" id="Shape"></path>
            </g>
            <g id="Group" transform="translate(6.000000, 6.000000)" stroke-linecap="round" stroke-linejoin="round">
                <polyline id="Shape" points="0 2.65 1 1.65 2 0.65 3 1.65 4 2.65"></polyline>
                <polyline id="Shape" points="4 2.65 5 1.65 6 0.65"></polyline>
            </g>
        </g>
    </g>
</svg>