<?xml version="1.0" encoding="utf-8"?>
<!-- Generator: Adobe Illustrator 19.2.1, SVG Export Plug-In . SVG Version: 6.00 Build 0)  -->
<svg version="1.1" id="Layer_1" xmlns="http://www.w3.org/2000/svg" xmlns:xlink="http://www.w3.org/1999/xlink" x="0px" y="0px"
	 viewBox="0 0 26.6 18.4" style="enable-background:new 0 0 26.6 18.4;" xml:space="preserve">
<style type="text/css">
	.st0{fill:#A4A4A4;}
	.st1{fill:none;stroke:#A4A4A4;stroke-width:2;stroke-miterlimit:10;}
</style>
<g>
	<g>
		<g>
			<path class="st0" d="M22,5.6l1.3,1.3l-6.8,6.8l-1.9,0.6l0.6-1.9L22,5.6 M22,2.8l-1.4,1.4L13.7,11l-0.3,0.3l-0.1,0.4l-0.6,1.9
				l-1.3,3.8l3.8-1.3l1.9-0.6l0.4-0.1l0.3-0.3l6.8-6.8l1.4-1.4l-1.4-1.4l-1.3-1.3L22,2.8L22,2.8z"/>
		</g>
	</g>
	<line class="st1" x1="1.2" y1="2.8" x2="15.6" y2="2.8"/>
	<line class="st1" x1="1.2" y1="9.2" x2="8.3" y2="9.2"/>
	<line class="st1" x1="1.2" y1="15.6" x2="8.3" y2="15.6"/>
</g>
</svg>
