<?xml version="1.0" encoding="utf-8"?>
<!-- Generator: Adobe Illustrator 18.1.1, SVG Export Plug-In . SVG Version: 6.00 Build 0)  -->
<svg version="1.1" id="Layer_1" xmlns="http://www.w3.org/2000/svg" xmlns:xlink="http://www.w3.org/1999/xlink" x="0px" y="0px"
	 viewBox="0 0 200 50" enable-background="new 0 0 200 50" xml:space="preserve">
<g>
	<path fill="#37609F" d="M176,37.3c0,2.2-1.8,4-4,4H27.6c-2.2,0-4-1.8-4-4v-26c0-2.2,1.8-4,4-4H172c2.2,0,4,1.8,4,4V37.3z"/>
</g>
<g>
	<path fill="#FFFFFF" d="M91.3,19.9h5.1v1h-3.9v3.1h3.6v1h-3.6v4.3h-1.2V19.9z"/>
	<path fill="#FFFFFF" d="M98.6,26.4l-1,3h-1.3l3.2-9.4h1.5l3.2,9.4h-1.3l-1-3H98.6z M101.7,25.5l-0.9-2.7c-0.2-0.6-0.4-1.2-0.5-1.7
		h0c-0.1,0.6-0.3,1.1-0.5,1.7l-0.9,2.7H101.7z"/>
	<path fill="#FFFFFF" d="M112,29.1c-0.4,0.2-1.3,0.4-2.5,0.4c-2.7,0-4.7-1.7-4.7-4.8c0-3,2-5,4.9-5c1.2,0,1.9,0.3,2.2,0.4l-0.3,1
		c-0.5-0.2-1.1-0.4-1.9-0.4c-2.2,0-3.7,1.4-3.7,3.9c0,2.3,1.3,3.8,3.6,3.8c0.7,0,1.5-0.2,2-0.4L112,29.1z"/>
	<path fill="#FFFFFF" d="M118.4,25h-3.7v3.4h4.1v1h-5.3v-9.4h5.1v1h-3.9v3h3.7V25z"/>
	<path fill="#FFFFFF" d="M120.4,20.1c0.5-0.1,1.4-0.2,2.2-0.2c1.2,0,2,0.2,2.6,0.7c0.5,0.4,0.8,0.9,0.8,1.7c0,0.9-0.6,1.7-1.6,2.1v0
		c0.9,0.2,1.9,1,1.9,2.4c0,0.8-0.3,1.4-0.8,1.9c-0.7,0.6-1.7,0.9-3.3,0.9c-0.8,0-1.5-0.1-1.9-0.1V20.1z M121.6,23.9h1.1
		c1.3,0,2-0.7,2-1.6c0-1.1-0.8-1.5-2.1-1.5c-0.6,0-0.9,0-1.1,0.1V23.9z M121.6,28.5c0.2,0,0.6,0.1,1,0.1c1.3,0,2.4-0.5,2.4-1.8
		c0-1.3-1.1-1.8-2.4-1.8h-1V28.5z"/>
	<path fill="#FFFFFF" d="M136.1,24.6c0,3.3-2,5-4.4,5c-2.5,0-4.2-1.9-4.2-4.8c0-3,1.9-5,4.4-5C134.4,19.8,136.1,21.8,136.1,24.6z
		 M128.7,24.7c0,2,1.1,3.8,3,3.8c1.9,0,3-1.8,3-3.9c0-1.9-1-3.8-3-3.8C129.7,20.8,128.7,22.6,128.7,24.7z"/>
	<path fill="#FFFFFF" d="M145.7,24.6c0,3.3-2,5-4.4,5c-2.5,0-4.2-1.9-4.2-4.8c0-3,1.9-5,4.4-5C144,19.8,145.7,21.8,145.7,24.6z
		 M138.4,24.7c0,2,1.1,3.8,3,3.8c1.9,0,3-1.8,3-3.9c0-1.9-1-3.8-3-3.8C139.4,20.8,138.4,22.6,138.4,24.7z"/>
	<path fill="#FFFFFF" d="M147.3,19.9h1.2v4.6h0c0.3-0.4,0.5-0.7,0.7-1l2.9-3.5h1.5l-3.4,4l3.7,5.4h-1.4l-3.1-4.6l-0.9,1v3.6h-1.2
		V19.9z"/>
</g>
<g opacity="0.2">
	<rect x="74.1" y="7.3" fill="#010101" width="1" height="34"/>
</g>
<g>
	<path fill="#FFFFFF" d="M50.5,18.9c0-0.8,0.5-0.9,0.8-0.9c0.3,0,2.1,0,2.1,0v-3.3l-2.9,0c-3.3,0-4,2.4-4,4v2.2h-1.9v3.4h1.9
		c0,4.3,0,9.6,0,9.6h4c0,0,0-5.3,0-9.6h2.7l0.3-3.4h-3V18.9z"/>
</g>
</svg>
