<?xml version="1.0" encoding="utf-8"?>
<!-- Generator: Adobe Illustrator 18.1.1, SVG Export Plug-In . SVG Version: 6.00 Build 0)  -->
<svg version="1.1" id="Layer_1" xmlns="http://www.w3.org/2000/svg" xmlns:xlink="http://www.w3.org/1999/xlink" x="0px" y="0px"
	 viewBox="0 0 93 33" enable-background="new 0 0 93 33" xml:space="preserve">
<g>
	<defs>
		<path id="SVGID_1_" d="M4.7,0.5c-2.2,0-4,1.8-4,4v24c0,2.2,1.8,4,4,4h84c2.2,0,4-1.8,4-4v-24c0-2.2-1.8-4-4-4H4.7z"/>
	</defs>
	<clipPath id="SVGID_2_">
		<use xlink:href="#SVGID_1_"  overflow="visible"/>
	</clipPath>
	
		<linearGradient id="SVGID_3_" gradientUnits="userSpaceOnUse" x1="-586.137" y1="569.3958" x2="-585.137" y2="569.3958" gradientTransform="matrix(0 32 32 0 -18173.9961 18756.8438)">
		<stop  offset="0" style="stop-color:#4A68B1"/>
		<stop  offset="1" style="stop-color:#3B57A7"/>
	</linearGradient>
	<rect x="0.7" y="0.5" clip-path="url(#SVGID_2_)" fill="url(#SVGID_3_)" width="92" height="32"/>
</g>
<path fill="#FFFFFF" d="M29.2,26.9V6c0-0.6-0.5-1.1-1.1-1.1h-1.9H8.8H6.9C6.3,4.9,5.8,5.4,5.8,6v19l0,1.9c0,0.6,0.5,1.1,1.1,1.1
	h11.8v-9.2h-3v-3.2h3v-3.5c0-2.1,1.9-3.5,3.4-3.5h3.4v2.9h-1.6c-0.8,0-1.8,0.6-1.8,1.4v2.6h3.1v3.2h-3.1V28h4.1h1.9
	C28.7,28,29.2,27.5,29.2,26.9"/>
<path fill="#FFFFFF" d="M45.1,19.4c0,1-0.4,1.8-1.1,2.3c-0.7,0.6-1.7,0.8-2.9,0.8c-1.3,0-2.4-0.2-3.1-0.5v-1.3
	c0.5,0.2,1,0.4,1.5,0.5c0.5,0.1,1.1,0.2,1.6,0.2c0.9,0,1.5-0.2,2-0.5c0.4-0.3,0.7-0.8,0.7-1.4c0-0.4-0.1-0.7-0.2-1
	c-0.2-0.3-0.4-0.5-0.8-0.7c-0.4-0.2-0.9-0.5-1.7-0.7c-1.1-0.4-1.8-0.8-2.3-1.3c-0.5-0.5-0.7-1.2-0.7-2c0-0.9,0.3-1.6,1-2.1
	c0.7-0.5,1.5-0.8,2.6-0.8c1.1,0,2.2,0.2,3.1,0.6l-0.4,1.1c-0.9-0.4-1.8-0.6-2.7-0.6c-0.7,0-1.2,0.2-1.6,0.5s-0.6,0.7-0.6,1.3
	c0,0.4,0.1,0.7,0.2,1c0.1,0.3,0.4,0.5,0.7,0.7c0.3,0.2,0.9,0.4,1.6,0.7c1.2,0.4,2,0.9,2.5,1.4C44.9,18,45.1,18.6,45.1,19.4"/>
<path fill="#FFFFFF" d="M53.1,22.4v-5.5c0-0.7-0.2-1.2-0.5-1.6c-0.3-0.3-0.8-0.5-1.5-0.5c-0.9,0-1.5,0.2-2,0.7
	c-0.4,0.5-0.6,1.3-0.6,2.4v4.4h-1.3V10.3h1.3V14c0,0.4,0,0.8-0.1,1.1h0.1c0.3-0.4,0.6-0.7,1.1-1c0.5-0.2,1-0.4,1.6-0.4
	c1,0,1.8,0.2,2.3,0.7c0.5,0.5,0.8,1.3,0.8,2.4v5.5H53.1z"/>
<path fill="#FFFFFF" d="M62.2,22.4L62,21.2h-0.1c-0.4,0.5-0.8,0.9-1.3,1.1c-0.4,0.2-0.9,0.3-1.6,0.3c-0.8,0-1.5-0.2-2-0.7
	c-0.5-0.4-0.7-1.1-0.7-1.9c0-1.7,1.4-2.6,4.1-2.7l1.4,0v-0.5c0-0.7-0.1-1.2-0.4-1.5c-0.3-0.3-0.7-0.5-1.4-0.5
	c-0.7,0-1.5,0.2-2.4,0.7l-0.4-1c0.4-0.2,0.9-0.4,1.4-0.5c0.5-0.1,1-0.2,1.5-0.2c1,0,1.8,0.2,2.3,0.7s0.7,1.2,0.7,2.2v5.8H62.2z
	 M59.3,21.5c0.8,0,1.4-0.2,1.9-0.7c0.5-0.4,0.7-1.1,0.7-1.8v-0.8l-1.3,0.1c-1,0-1.8,0.2-2.2,0.5c-0.5,0.3-0.7,0.7-0.7,1.3
	c0,0.5,0.1,0.8,0.4,1.1C58.4,21.4,58.8,21.5,59.3,21.5"/>
<path fill="#FFFFFF" d="M69.7,13.8c0.4,0,0.7,0,1,0.1L70.5,15c-0.4-0.1-0.7-0.1-0.9-0.1c-0.7,0-1.3,0.3-1.8,0.8
	c-0.5,0.6-0.7,1.3-0.7,2.1v4.6h-1.3v-8.5h1.1l0.1,1.6h0.1c0.3-0.6,0.7-1,1.1-1.3C68.7,13.9,69.2,13.8,69.7,13.8"/>
<path fill="#FFFFFF" d="M75.9,22.6c-1.3,0-2.2-0.4-3-1.1c-0.7-0.8-1.1-1.8-1.1-3.2c0-1.4,0.3-2.5,1-3.3c0.7-0.8,1.6-1.2,2.7-1.2
	c1.1,0,1.9,0.3,2.5,1c0.6,0.7,0.9,1.6,0.9,2.8v0.8h-5.9c0,1,0.3,1.8,0.8,2.3c0.5,0.5,1.2,0.8,2,0.8c0.9,0,1.8-0.2,2.7-0.6V22
	c-0.5,0.2-0.9,0.3-1.3,0.4C77,22.5,76.5,22.6,75.9,22.6 M75.6,14.8c-0.7,0-1.2,0.2-1.6,0.7c-0.4,0.4-0.6,1.1-0.7,1.8h4.4
	c0-0.8-0.2-1.4-0.5-1.9C76.7,15.1,76.2,14.8,75.6,14.8"/>
</svg>
