<?xml version="1.0" encoding="utf-8"?>
<!-- Generator: Adobe Illustrator 15.0.0, SVG Export Plug-In  -->
<!DOCTYPE svg PUBLIC "-//W3C//DTD SVG 1.1//EN" "http://www.w3.org/Graphics/SVG/1.1/DTD/svg11.dtd" [
	<!ENTITY ns_flows "http://ns.adobe.com/Flows/1.0/">
]>
<svg version="1.1"
	 xmlns="http://www.w3.org/2000/svg" xmlns:xlink="http://www.w3.org/1999/xlink" xmlns:a="http://ns.adobe.com/AdobeSVGViewerExtensions/3.0/"
	 x="0px" y="0px" width="113px" height="113px" viewBox="0 0 113 113" overflow="visible" enable-background="new 0 0 113 113"
	 xml:space="preserve">
<defs>
</defs>
<circle fill="#E5E5E4" cx="56.692" cy="56.693" r="16.063"/>
<path fill="#E5E5E4" d="M94.259,28.272c-0.874-2.25-1.919-3.854-3.604-5.541c-1.687-1.686-3.292-2.731-5.541-3.604
	c-1.698-0.66-4.25-1.445-8.948-1.659c-5.081-0.232-6.605-0.281-19.473-0.281s-14.391,0.049-19.473,0.281
	c-4.698,0.214-7.249,0.999-8.947,1.659c-2.249,0.874-3.854,1.918-5.542,3.604c-1.686,1.686-2.729,3.291-3.604,5.541
	c-0.659,1.698-1.444,4.25-1.659,8.948c-0.23,5.081-0.281,6.605-0.281,19.473c0,12.866,0.051,14.391,0.281,19.472
	c0.215,4.699,1,7.251,1.659,8.948c0.875,2.25,1.919,3.854,3.606,5.541c1.686,1.686,3.291,2.73,5.54,3.604
	c1.698,0.66,4.249,1.445,8.947,1.66c5.081,0.232,6.605,0.281,19.473,0.281c12.868,0,14.393-0.049,19.473-0.281
	c4.698-0.215,7.25-1,8.948-1.66c2.249-0.873,3.854-1.918,5.541-3.604c1.686-1.687,2.73-3.291,3.604-5.541
	c0.659-1.697,1.445-4.249,1.659-8.948c0.232-5.081,0.281-6.605,0.281-19.472c0-12.867-0.049-14.392-0.281-19.473
	C95.704,32.522,94.918,29.97,94.259,28.272z M56.692,81.438c-13.666,0-24.745-11.078-24.745-24.744
	c0-13.667,11.079-24.747,24.745-24.747c13.667,0,24.745,11.08,24.745,24.747C81.438,70.359,70.359,81.438,56.692,81.438z
	 M82.415,36.752c-3.192,0-5.782-2.589-5.782-5.783s2.59-5.782,5.782-5.782c3.195,0,5.784,2.588,5.784,5.782
	S85.61,36.752,82.415,36.752z"/>
<path fill="#E5E5E4" d="M102.048,0h-90.71C5.076,0,0,5.076,0,11.338v90.708c0,6.262,5.076,11.339,11.338,11.339h90.71
	c6.262,0,11.338-5.076,11.338-11.339V11.338C113.386,5.077,108.31,0,102.048,0z M104.592,76.561
	c-0.234,5.129-1.049,8.633-2.24,11.697c-1.231,3.169-2.879,5.856-5.559,8.535c-2.679,2.68-5.366,4.327-8.535,5.559
	c-3.064,1.191-6.567,2.006-11.697,2.24c-5.14,0.234-6.781,0.289-19.868,0.289s-14.728-0.055-19.868-0.289
	c-5.129-0.234-8.632-1.049-11.697-2.24c-3.169-1.231-5.855-2.879-8.534-5.559c-2.68-2.679-4.327-5.366-5.56-8.535
	c-1.191-3.064-2.005-6.568-2.239-11.697c-0.234-5.14-0.29-6.779-0.29-19.867c0-13.088,0.056-14.729,0.29-19.869
	c0.234-5.129,1.048-8.632,2.239-11.697c1.232-3.168,2.88-5.856,5.56-8.535c2.679-2.679,5.365-4.327,8.534-5.558
	c3.065-1.191,6.568-2.006,11.697-2.24c5.141-0.234,6.781-0.29,19.868-0.29s14.729,0.055,19.868,0.29
	c5.13,0.234,8.633,1.049,11.697,2.24c3.169,1.231,5.856,2.879,8.535,5.558c2.68,2.679,4.327,5.367,5.559,8.535
	c1.191,3.065,2.006,6.568,2.24,11.697c0.234,5.14,0.289,6.78,0.289,19.869C104.881,69.781,104.826,71.421,104.592,76.561z"/>
</svg>
