<?xml version="1.0" encoding="utf-8"?>
<!-- Generator: Adobe Illustrator 18.1.1, SVG Export Plug-In . SVG Version: 6.00 Build 0)  -->
<svg version="1.1" id="Layer_1" xmlns="http://www.w3.org/2000/svg" xmlns:xlink="http://www.w3.org/1999/xlink" x="0px" y="0px"
	 viewBox="0 0 60 60" enable-background="new 0 0 60 60" xml:space="preserve">
<g>
	<g>
		<g>
			<path fill="#B0B0B0" d="M21.2,31.3c-0.6,0-1-0.4-1-1s0.4-1,1-1l18.6,0c0.6,0,1,0.4,1,1s-0.4,1-1,1L21.2,31.3z"/>
		</g>
		<g>
			<path fill="#B0B0B0" d="M33.2,37.9c-0.3,0-0.5-0.1-0.7-0.3c-0.4-0.4-0.4-1,0-1.4l6.6-6.6c0.4-0.4,1-0.4,1.4,0s0.4,1,0,1.4
				l-6.6,6.6C33.7,37.8,33.5,37.9,33.2,37.9z"/>
		</g>
		<g>
			<path fill="#B0B0B0" d="M39.8,31.3c-0.3,0-0.5-0.1-0.7-0.3l-6.6-6.6c-0.4-0.4-0.4-1,0-1.4c0.4-0.4,1-0.4,1.4,0l6.6,6.6
				c0.4,0.4,0.4,1,0,1.4C40.3,31.2,40,31.3,39.8,31.3z"/>
		</g>
	</g>
	<g>
		<path fill="#E3E3E3" d="M30.5,48.5L30.5,48.5c-10,0-18.2-8.2-18.2-18.2c0-10,8.2-18.2,18.2-18.2c10,0,18.2,8.2,18.2,18.2
			C48.7,40.4,40.5,48.5,30.5,48.5z M30.5,14.2c-8.9,0-16.2,7.3-16.2,16.2c0,8.9,7.3,16.2,16.2,16.2c8.9,0,16.2-7.3,16.2-16.2
			C46.7,21.4,39.4,14.2,30.5,14.2z"/>
	</g>
</g>
</svg>
