<?xml version="1.0" encoding="utf-8"?>
<!-- Generator: Adobe Illustrator 16.0.0, SVG Export Plug-In . SVG Version: 6.00 Build 0)  -->
<!DOCTYPE svg PUBLIC "-//W3C//DTD SVG 1.1//EN" "http://www.w3.org/Graphics/SVG/1.1/DTD/svg11.dtd">
<svg version="1.1" id="Layer_1" xmlns="http://www.w3.org/2000/svg" xmlns:xlink="http://www.w3.org/1999/xlink" x="0px" y="0px"
	 width="32px" height="32px" viewBox="0 0 32 32" enable-background="new 0 0 32 32" xml:space="preserve">
<g>
	<path fill="#999999" d="M14.396,5.697c0,0-0.497,0-0.497,0.497v3.144c0,0,0,0.497,0.497,0.497h3.143c0,0,0.497,0,0.497-0.497V6.194
		c0,0,0-0.497-0.497-0.497H14.396L14.396,5.697z"/>
	<path fill="#999999" d="M14.396,13.972c0,0-0.497,0-0.497,0.497v3.144c0,0,0,0.497,0.497,0.497h3.143c0,0,0.497,0,0.497-0.497
		v-3.144c0,0,0-0.497-0.497-0.497H14.396L14.396,13.972z"/>
	<path fill="#999999" d="M14.396,22.246c0,0-0.497,0-0.497,0.498v3.143c0,0,0,0.497,0.497,0.497h3.143c0,0,0.497,0,0.497-0.497
		v-3.143c0,0,0-0.498-0.497-0.498H14.396L14.396,22.246z"/>
</g>
</svg>
