<?xml version="1.0" encoding="utf-8"?>
<!-- Generator: Adobe Illustrator 16.0.0, SVG Export Plug-In . SVG Version: 6.00 Build 0)  -->
<!DOCTYPE svg PUBLIC "-//W3C//DTD SVG 1.1//EN" "http://www.w3.org/Graphics/SVG/1.1/DTD/svg11.dtd">
<svg version="1.1" id="Layer_1" xmlns="http://www.w3.org/2000/svg" xmlns:xlink="http://www.w3.org/1999/xlink" x="0px" y="0px"
	 width="30px" height="30px" viewBox="0 0 30 30" enable-background="new 0 0 30 30" xml:space="preserve">
<g>
	<g>
		<path fill="none" stroke="#E5E5E5" stroke-width="2" stroke-miterlimit="10" d="M17.676,23.12v-1.412
			c1.857-1.708,4.012-4.31,4.012-6.39c0-3.715-2.973-6.613-6.687-6.613c-3.715,0-6.688,2.898-6.688,6.539
			c0,2.08,2.155,4.756,4.012,6.391v1.411"/>
		<path fill="none" stroke="#E5E5E5" stroke-width="2" stroke-miterlimit="10" d="M12.325,25.275v0.075
			c0,1.41,1.189,2.601,2.675,2.601c1.486,0,2.675-1.19,2.675-2.601v-0.075"/>
	</g>
	<g>
		
			<polyline fill="none" stroke="#E5E5E5" stroke-width="2" stroke-linecap="round" stroke-linejoin="round" stroke-miterlimit="10" points="
			12.771,15.095 13.514,14.353 14.257,13.609 15,14.353 15.744,15.095 		"/>
		
			<polyline fill="none" stroke="#E5E5E5" stroke-width="2" stroke-linecap="round" stroke-linejoin="round" stroke-miterlimit="10" points="
			15.744,15.095 16.486,14.353 17.23,13.609 		"/>
	</g>
</g>
<line fill="none" stroke="#E5E5E5" stroke-linecap="round" stroke-miterlimit="10" x1="15" y1="6.511" x2="15" y2="1.75"/>
<line fill="none" stroke="#E5E5E5" stroke-linecap="round" stroke-miterlimit="10" x1="6.708" y1="12.374" x2="3.091" y2="11.579"/>
<line fill="none" stroke="#E5E5E5" stroke-linecap="round" stroke-miterlimit="10" x1="23.146" y1="12.277" x2="26.715" y2="11.291"/>
<line fill="none" stroke="#E5E5E5" stroke-linecap="round" stroke-miterlimit="10" x1="20.579" y1="8.404" x2="23.32" y2="5.338"/>
<line fill="none" stroke="#E5E5E5" stroke-linecap="round" stroke-miterlimit="10" x1="9.024" y1="8.368" x2="6.396" y2="5.375"/>
</svg>
