<?xml version="1.0" encoding="utf-8"?>
<!-- Generator: Adobe Illustrator 16.0.0, SVG Export Plug-In . SVG Version: 6.00 Build 0)  -->
<!DOCTYPE svg PUBLIC "-//W3C//DTD SVG 1.1//EN" "http://www.w3.org/Graphics/SVG/1.1/DTD/svg11.dtd">
<svg version="1.1" id="Layer_1" xmlns="http://www.w3.org/2000/svg" xmlns:xlink="http://www.w3.org/1999/xlink" x="0px" y="0px"
	 width="150px" height="150px" viewBox="0 0 150 150" enable-background="new 0 0 150 150" xml:space="preserve">
<g>
	<path fill="none" stroke="#6854A3" stroke-width="10" stroke-linecap="round" stroke-linejoin="round" stroke-miterlimit="10" d="
		M29.386,111.07c-12.947,3.108-20.716,7.77-20.716,12.948c0,4.143,5.697,8.287,15.02,11.395"/>
	<path fill="none" stroke="#6854A3" stroke-width="10" stroke-linecap="round" stroke-linejoin="round" stroke-miterlimit="10" d="
		M128.31,135.413c9.322-3.107,15.02-7.252,15.02-11.395c0-5.179-8.286-9.84-20.717-12.948"/>
	<g>
		
			<ellipse fill="none" stroke="#6854A3" stroke-width="10" stroke-linecap="round" stroke-linejoin="round" stroke-miterlimit="10" cx="75.999" cy="52.546" rx="17.092" ry="17.609"/>
		<path fill="none" stroke="#6854A3" stroke-width="10" stroke-linecap="round" stroke-linejoin="round" stroke-miterlimit="10" d="
			M75.999,6.451c-25.378,0-45.577,20.716-45.577,46.095c0,34.184,37.808,68.884,45.577,68.884c8.286,0,45.577-34.7,45.577-68.884
			C121.576,27.167,100.859,6.451,75.999,6.451z"/>
	</g>
	<g>
		<g>
			<path fill="none" stroke="#6854A3" stroke-width="10" stroke-linecap="round" stroke-linejoin="round" d="M37.673,139.039
				c3.107,0.518,6.733,1.034,10.358,1.553"/>
			
				<path fill="none" stroke="#6854A3" stroke-width="10" stroke-linecap="round" stroke-linejoin="round" stroke-dasharray="3.6192,3.6192" d="
				M66.677,142.146c3.107,0,6.215,0,9.322,0c6.733,0,12.948,0,18.646-0.519"/>
			<path fill="none" stroke="#6854A3" stroke-width="10" stroke-linecap="round" stroke-linejoin="round" d="M103.967,140.592
				c3.626-0.519,7.251-1.035,10.358-1.553"/>
		</g>
	</g>
</g>
</svg>
