<?xml version="1.0" encoding="utf-8"?>
<!-- Generator: Adobe Illustrator 19.2.1, SVG Export Plug-In . SVG Version: 6.00 Build 0)  -->
<svg version="1.1" id="Layer_1" xmlns="http://www.w3.org/2000/svg" xmlns:xlink="http://www.w3.org/1999/xlink" x="0px" y="0px"
	 viewBox="0 0 28 28" style="enable-background:new 0 0 28 28;" xml:space="preserve">
<style type="text/css">
	.st0{opacity:0.1;}
	.st1{fill:none;stroke:#E3E3E3;stroke-width:2;stroke-linecap:round;stroke-linejoin:round;stroke-miterlimit:10;}
</style>
<g>
	<g class="st0">
		<g>
			<g>
				<g>
					<path d="M23.5,9.3H5.7c0,0,0,0,0,0V3.4c0,0,0,0,0,0h17.7"/>
				</g>
				<polyline points="23.5,3.4 27,6.3 23.5,9.3 				"/>
			</g>
			<g>
				<g>
					<path d="M4.5,12.8h17.7c0,0,0,0,0,0v5.9c0,0,0,0,0,0H4.5"/>
				</g>
				<polyline points="4.5,18.7 1,15.8 4.5,12.8 				"/>
			</g>
		</g>
	</g>
	<g>
		<g>
			<g>
				<g>
					<path class="st1" d="M23.5,9.3H5.7c0,0,0,0,0,0V3.4c0,0,0,0,0,0h17.7"/>
				</g>
				<polyline class="st1" points="23.5,3.4 27,6.3 23.5,9.3 				"/>
			</g>
			<g>
				<g>
					<path class="st1" d="M4.5,12.8h17.7c0,0,0,0,0,0v5.9c0,0,0,0,0,0H4.5"/>
				</g>
				<polyline class="st1" points="4.5,18.7 1,15.8 4.5,12.8 				"/>
			</g>
			<line class="st1" x1="14" y1="1" x2="14" y2="3.4"/>
			<line class="st1" x1="14" y1="9.7" x2="14" y2="12.3"/>
			<line class="st1" x1="14" y1="19.2" x2="14" y2="27"/>
		</g>
	</g>
</g>
</svg>
