<?xml version="1.0" encoding="utf-8"?>
<!-- Generator: Adobe Illustrator 18.1.1, SVG Export Plug-In . SVG Version: 6.00 Build 0)  -->
<svg version="1.1" id="Layer_1" xmlns="http://www.w3.org/2000/svg" xmlns:xlink="http://www.w3.org/1999/xlink" x="0px" y="0px"
	 viewBox="0 0 36 34" enable-background="new 0 0 36 34" xml:space="preserve">
<g>
	<g>
		<path opacity="0.8" fill="#FFFFFF" d="M34.6,17.1c0,9.1-7.4,16.5-16.5,16.5C9,33.6,1.6,26.2,1.6,17.1C1.6,7.9,9,0.5,18.1,0.5
			C27.2,0.5,34.6,7.9,34.6,17.1z"/>
		<g>
			<path fill="#AFAFAF" d="M18.1,15.3c-1.6,0-2.8,1.3-2.8,2.8c0,1.6,1.3,2.8,2.8,2.8c1.6,0,2.8-1.3,2.8-2.8
				C20.9,16.6,19.6,15.3,18.1,15.3z"/>
			<path fill="#AFAFAF" d="M24.8,11.8h-1.6l-2.6-2.3h-2.6h-2.6l-2.6,2.3h-1.6c-1.7,0-3,1.3-3,3v6.7c0,1.7,1.3,3,3,3h13.5
				c1.7,0,3-1.3,3-3v-6.7C27.8,13.2,26.5,11.8,24.8,11.8z M18.1,22.5c-2.4,0-4.3-1.9-4.3-4.3c0-2.4,2-4.3,4.3-4.3s4.3,2,4.3,4.3
				C22.4,20.6,20.5,22.5,18.1,22.5z"/>
		</g>
	</g>
</g>
</svg>
