<?xml version="1.0" encoding="utf-8"?>
<!-- Generator: Adobe Illustrator 15.0.0, SVG Export Plug-In  -->
<!DOCTYPE svg PUBLIC "-//W3C//DTD SVG 1.1//EN" "http://www.w3.org/Graphics/SVG/1.1/DTD/svg11.dtd" [
	<!ENTITY ns_flows "http://ns.adobe.com/Flows/1.0/">
]>
<svg version="1.1"
	 xmlns="http://www.w3.org/2000/svg" xmlns:xlink="http://www.w3.org/1999/xlink" xmlns:a="http://ns.adobe.com/AdobeSVGViewerExtensions/3.0/"
	 x="0px" y="0px" width="113px" height="113px" viewBox="0 0 113 113" overflow="visible" enable-background="new 0 0 113 113"
	 xml:space="preserve">
<defs>
</defs>
<path fill="#E5E5E4" d="M102.049,0h-90.71C5.077,0,0,5.076,0,11.338v90.708c0,6.262,5.076,11.339,11.339,11.339h90.71
	c6.262,0,11.338-5.076,11.338-11.339V11.338C113.387,5.077,108.311,0,102.049,0z M56.694,99.181c-4.405,0-8.619-0.702-12.578-1.915
	c1.725-2.873,4.342-7.471,5.3-11.173c0.511-1.979,2.617-10.087,2.617-10.087c1.405,2.617,5.49,4.852,9.769,4.852
	c12.768,0,22.025-11.811,22.025-26.431c0-13.981-11.428-24.516-26.176-24.516c-18.323,0-28.091,12.322-28.091,25.729
	c0,6.257,3.32,13.981,8.619,16.472c0.766,0.383,1.213,0.191,1.404-0.575c0.128-0.574,0.829-3.447,1.148-4.788
	c0.064-0.447,0-0.766-0.319-1.213c-1.787-2.107-3.191-6.064-3.191-9.704c0-9.385,7.15-18.451,19.217-18.451
	c10.407,0,17.749,7.15,17.749,17.301c0,11.492-5.81,19.473-13.343,19.473c-4.214,0-7.342-3.447-6.321-7.662
	c1.213-5.043,3.512-10.534,3.512-14.173c0-3.256-1.725-6.001-5.364-6.001c-4.214,0-7.661,4.405-7.661,10.343
	c0,3.767,1.277,6.32,1.277,6.32s-4.214,17.812-4.98,21.132c-0.83,3.703-0.511,8.811-0.128,12.194
	c-15.833-6.192-27.006-21.579-27.006-39.583c0-23.494,19.025-42.52,42.521-42.52c23.495,0,42.52,19.025,42.52,42.456
	C99.214,80.155,80.189,99.181,56.694,99.181z"/>
</svg>
