<?xml version="1.0" encoding="utf-8"?>
<!-- Generator: Adobe Illustrator 16.0.0, SVG Export Plug-In . SVG Version: 6.00 Build 0)  -->
<!DOCTYPE svg PUBLIC "-//W3C//DTD SVG 1.1//EN" "http://www.w3.org/Graphics/SVG/1.1/DTD/svg11.dtd">
<svg version="1.1" id="Layer_1" xmlns="http://www.w3.org/2000/svg" xmlns:xlink="http://www.w3.org/1999/xlink" x="0px" y="0px"
	 width="30px" height="30px" viewBox="0 0 30 30" enable-background="new 0 0 30 30" xml:space="preserve">
<g>
	<g>
		<path fill="#E5E5E5" d="M16.1,2.326C16.1,2.326,16.1,2.442,16.1,2.326l0.927,3.256c0.116,0.349,0.348,0.581,0.695,0.698
			l1.854,0.813c0.115,0.117,0.348,0.117,0.463,0.117c0.231,0,0.348,0,0.579-0.117l2.78-1.511c0,0,0.463,0.349,0.811,0.698
			c0.231,0.232,0.579,0.697,0.579,0.697l-1.621,2.791c-0.116,0.349-0.232,0.698,0,0.93l0.811,1.86
			c0.116,0.349,0.463,0.582,0.695,0.698l3.012,0.814v2.092l-3.128,0.814c-0.348,0.116-0.579,0.349-0.695,0.698l-0.694,1.977
			c-0.116,0.349-0.116,0.697,0,1.046l1.621,2.791c0,0-0.348,0.465-0.694,0.814C23.745,24.651,23.281,25,23.281,25l-2.779-1.628
			c-0.116-0.116-0.348-0.116-0.579-0.116c-0.116,0-0.348,0-0.464,0.116l-1.854,0.814c-0.347,0.116-0.579,0.465-0.694,0.697
			L16.1,27.907l0,0h-2.084l0,0l-0.811-3.14c-0.116-0.349-0.348-0.581-0.695-0.698l-1.969-0.813
			c-0.116-0.116-0.348-0.116-0.463-0.116c-0.232,0-0.348,0-0.579,0.116l-2.78,1.512c0,0-0.463-0.349-0.811-0.698
			c-0.348-0.349-0.695-0.813-0.695-0.813l1.622-2.791c0.116-0.349,0.116-0.697,0-0.93l-0.811-1.86
			c-0.116-0.35-0.463-0.582-0.695-0.698l-3.012-0.697v-2.093l3.012-0.814c0.347-0.116,0.695-0.349,0.695-0.698l0.927-1.977
			c0.116-0.349,0.116-0.698,0-1.046L5.328,6.977l0,0c0,0,0.347-0.465,0.695-0.814c0.348-0.349,0.811-0.697,0.811-0.697l2.78,1.511
			c0.116,0.116,0.347,0.116,0.579,0.116c0.116,0,0.348,0,0.463-0.116l1.853-0.814c0.348-0.116,0.579-0.465,0.695-0.814l0.811-3.139
			V2.093H16.1 M16.1,0h-1.969c-0.695,0-1.274,0.232-1.737,0.698c-0.231,0.232-0.463,0.582-0.579,1.046L11.12,4.186l-0.927,0.465
			L7.992,3.372C7.645,3.14,7.297,3.023,6.834,3.023c-0.116,0-0.348,0-0.463,0C6.023,3.256,5.56,3.372,4.401,4.535
			C4.054,4.768,3.707,5.232,3.59,5.349l0,0C3.011,5.93,2.896,6.86,3.127,7.558c0,0.116,0,0.116,0.116,0.232
			c0,0.117,0.116,0.233,0.116,0.349l1.274,2.209l-0.347,0.814L1.853,11.86c-1.042,0.232-1.737,1.163-1.737,2.209L0,16.279
			c0,1.046,0.695,1.977,1.737,2.209l2.432,0.698L4.517,20l-1.274,2.209c-0.348,0.466-0.348,1.163-0.232,1.744
			c0.116,0.582,0.348,0.931,1.274,1.86l0,0c0.347,0.35,0.811,0.814,0.926,0.814c0.463,0.349,0.927,0.465,1.39,0.465
			c0.348,0,0.811-0.116,1.158-0.349l2.317-1.279l0.926,0.349l0.695,2.442l0,0c0.116,0.465,0.347,0.931,0.811,1.163
			C12.973,29.768,13.436,30,14.015,30H16.1c0.58,0,1.274-0.232,1.622-0.697c0.116-0.116,0.348-0.35,0.464-0.582
			c0.115-0.116,0.115-0.232,0.115-0.465l0.695-2.442l0.927-0.349l2.2,1.279c0.348,0.232,0.695,0.349,1.158,0.349
			c0.116,0,0.232,0,0.348,0c0.464-0.116,0.927-0.232,2.085-1.396c0.927-0.93,1.043-1.278,1.158-1.511
			c0.348-0.698,0.231-1.512-0.115-2.094l-1.274-2.209l0.348-0.814l2.433-0.697C29.305,18.14,30,17.21,30,16.162V14.07
			c0-1.046-0.695-1.977-1.737-2.209l-2.433-0.698l-0.348-0.814l1.39-2.209c0.231-0.465,0.348-1.047,0.231-1.628
			c-0.115-0.582-0.347-0.93-1.39-1.977c-0.231-0.232-0.579-0.465-0.927-0.814C24.324,3.372,23.86,3.14,23.281,3.14
			c-0.348,0-0.811,0.116-1.158,0.349l-2.2,1.279l-0.927-0.349L18.301,1.86c-0.115-0.349-0.348-0.814-0.579-1.163
			C17.374,0.232,16.68,0,16.1,0L16.1,0z"/>
	</g>
	<g>
		<path fill="#E5E5E5" d="M15.058,12.326c1.506,0,2.78,1.279,2.78,2.791s-1.274,2.791-2.78,2.791s-2.78-1.279-2.78-2.791
			S13.552,12.326,15.058,12.326 M15.058,10c-2.78,0-5.097,2.326-5.097,5.116c0,2.791,2.317,5.116,5.097,5.116
			c2.78,0,5.097-2.325,5.097-5.116C20.154,12.326,17.838,10,15.058,10L15.058,10z"/>
	</g>
</g>
</svg>
