<?xml version="1.0" encoding="utf-8"?>
<!-- Generator: Adobe Illustrator 18.1.1, SVG Export Plug-In . SVG Version: 6.00 Build 0)  -->
<svg version="1.1" id="Layer_1" xmlns="http://www.w3.org/2000/svg" xmlns:xlink="http://www.w3.org/1999/xlink" x="0px" y="0px"
	 viewBox="0 0 21 30" enable-background="new 0 0 21 30" xml:space="preserve">
<g>
	<path fill="#7724F6" d="M15.7,15.4c-0.1,0-0.2,0-0.3-0.1L5,5.2C4.8,5.1,4.8,4.8,5,4.6c0.2-0.2,0.4-0.2,0.6,0L16,14.7
		c0.2,0.2,0.2,0.4,0,0.6C15.9,15.4,15.8,15.4,15.7,15.4z"/>
	<path fill="#7724F6" d="M5.3,25.5c-0.1,0-0.2,0-0.3-0.1c-0.2-0.2-0.2-0.4,0-0.6l10.4-10.1c0.2-0.2,0.4-0.2,0.6,0
		c0.2,0.2,0.2,0.4,0,0.6L5.6,25.4C5.5,25.5,5.4,25.5,5.3,25.5z"/>
</g>
</svg>
