<?xml version="1.0" encoding="utf-8"?>
<!-- Generator: Adobe Illustrator 18.1.1, SVG Export Plug-In . SVG Version: 6.00 Build 0)  -->
<svg version="1.0" id="Layer_1" xmlns="http://www.w3.org/2000/svg" xmlns:xlink="http://www.w3.org/1999/xlink" x="0px" y="0px"
	 viewBox="0 0 21 30" enable-background="new 0 0 21 30" xml:space="preserve">
<g>
	<path fill="#7724F6" d="M4.6,15.5c0.1,0,0.3-0.1,0.4-0.2L17.8,2.9c0.2-0.2,0.2-0.5,0-0.8c-0.2-0.2-0.5-0.2-0.8,0L4.2,14.6
		c-0.2,0.2-0.2,0.5,0,0.8C4.3,15.5,4.4,15.5,4.6,15.5z"/>
	<path fill="#7724F6" d="M17.4,28c0.1,0,0.3-0.1,0.4-0.2c0.2-0.2,0.2-0.6,0-0.8L4.9,14.6c-0.2-0.2-0.6-0.2-0.8,0
		c-0.2,0.2-0.2,0.6,0,0.8l12.9,12.5C17.2,27.9,17.3,28,17.4,28z"/>
</g>
</svg>
