<?xml version="1.0" encoding="utf-8"?>
<!-- Generator: Adobe Illustrator 19.2.1, SVG Export Plug-In . SVG Version: 6.00 Build 0)  -->
<svg version="1.1" id="Layer_1" xmlns="http://www.w3.org/2000/svg" xmlns:xlink="http://www.w3.org/1999/xlink" x="0px" y="0px"
	 viewBox="0 0 25.1 22.9" style="enable-background:new 0 0 25.1 22.9;" xml:space="preserve">
<style type="text/css">
	.st0{fill:none;stroke:#E3E3E3;stroke-width:2;stroke-linecap:round;stroke-linejoin:round;stroke-miterlimit:10;}
	.st1{fill:#AFAFAF;}
</style>
<g>
	<path class="st0" d="M21.5,21.5h-18c-1.1,0-2-0.9-2-2v-16c0-1.1,0.9-2,2-2h18c1.1,0,2,0.9,2,2v16C23.5,20.6,22.6,21.5,21.5,21.5z"
		/>
	<g>
		<g>
			<path class="st1" d="M13,15.6c0.6-0.2,1.1-0.4,1.6-0.7c0.5-0.3,0.9-0.6,1.3-1s0.7-0.8,0.9-1.2c0.2-0.4,0.3-0.9,0.3-1.4
				c0-0.3-0.1-0.5-0.2-0.7c-0.1-0.2-0.2-0.3-0.4-0.3c-0.2,0-0.3,0-0.4,0.1c-0.1,0.1-0.2,0.1-0.3,0.2c-0.1,0.1-0.2,0.1-0.4,0.2
				c-0.1,0.1-0.3,0.1-0.6,0.1c-0.3,0-0.5-0.1-0.7-0.2c-0.2-0.1-0.4-0.3-0.6-0.4c-0.2-0.2-0.3-0.4-0.4-0.7C13,9.3,13,9.1,13,8.8
				c0-0.3,0.1-0.6,0.2-0.9c0.1-0.3,0.3-0.5,0.5-0.7c0.2-0.2,0.5-0.4,0.8-0.5c0.3-0.1,0.6-0.2,1-0.2c0.5,0,0.9,0.1,1.3,0.3
				c0.4,0.2,0.8,0.5,1.1,0.8s0.5,0.8,0.7,1.3c0.2,0.5,0.3,1,0.3,1.5c0,0.8-0.2,1.6-0.5,2.4c-0.3,0.7-0.7,1.3-1.3,1.9
				c-0.5,0.5-1.2,1-1.9,1.3c-0.7,0.3-1.5,0.5-2.3,0.6V15.6z M6.2,15.6c0.6-0.2,1.1-0.4,1.6-0.7c0.5-0.3,0.9-0.6,1.3-1
				c0.4-0.4,0.7-0.8,0.9-1.2c0.2-0.4,0.3-0.9,0.3-1.4c0-0.3-0.1-0.5-0.2-0.7c-0.1-0.2-0.2-0.3-0.4-0.3c-0.2,0-0.3,0-0.4,0.1
				c-0.1,0.1-0.2,0.1-0.3,0.2c-0.1,0.1-0.2,0.1-0.4,0.2S8.3,10.9,8,10.9c-0.3,0-0.5-0.1-0.7-0.2c-0.2-0.1-0.4-0.3-0.6-0.4
				c-0.2-0.2-0.3-0.4-0.4-0.7C6.2,9.3,6.2,9.1,6.2,8.8c0-0.3,0.1-0.6,0.2-0.9c0.1-0.3,0.3-0.5,0.5-0.7c0.2-0.2,0.5-0.4,0.8-0.5
				c0.3-0.1,0.6-0.2,1-0.2c0.5,0,0.9,0.1,1.3,0.3c0.4,0.2,0.8,0.5,1.1,0.8s0.5,0.8,0.7,1.3c0.2,0.5,0.3,1,0.3,1.5
				c0,0.8-0.2,1.6-0.5,2.4c-0.3,0.7-0.7,1.3-1.3,1.9c-0.5,0.5-1.2,1-1.9,1.3c-0.7,0.3-1.5,0.5-2.3,0.6V15.6z"/>
		</g>
	</g>
</g>
</svg>
