<?xml version="1.0" encoding="utf-8"?>
<!-- Generator: Adobe Illustrator 19.2.1, SVG Export Plug-In . SVG Version: 6.00 Build 0)  -->
<svg version="1.1" id="Layer_1" xmlns="http://www.w3.org/2000/svg" xmlns:xlink="http://www.w3.org/1999/xlink" x="0px" y="0px"
	 viewBox="0 0 34 34" style="enable-background:new 0 0 34 34;" xml:space="preserve">
<style type="text/css">
	.st0{fill:#FF5500;}
	.st1{fill:#FFFFFF;}
</style>
<g>
	<path class="st0" d="M33,17c0,1.2-1.9,2.1-2.1,3.2c-0.3,1.1,1,2.8,0.5,3.8c-0.5,1-2.6,1-3.3,1.9c-0.7,0.9-0.3,2.9-1.1,3.6
		c-0.9,0.7-2.8-0.2-3.8,0.3c-1,0.5-1.5,2.5-2.6,2.8c-1.1,0.2-2.4-1.4-3.6-1.4c-1.2,0-2.5,1.6-3.6,1.4c-1.1-0.3-1.6-2.3-2.6-2.8
		c-1-0.5-2.9,0.4-3.8-0.3c-0.9-0.7-0.4-2.8-1.1-3.6C5.2,25,3.1,25,2.6,23.9c-0.5-1,0.8-2.7,0.5-3.8C2.9,19.1,1,18.2,1,17
		c0-1.2,1.9-2.1,2.1-3.2c0.3-1.1-1-2.8-0.5-3.8c0.5-1,2.6-1,3.3-1.9C6.6,7.2,6.1,5.2,7,4.5c0.9-0.7,2.8,0.2,3.8-0.3
		c1-0.5,1.5-2.5,2.6-2.8c1.1-0.2,2.4,1.4,3.6,1.4c1.2,0,2.5-1.6,3.6-1.4c1.1,0.3,1.6,2.3,2.6,2.8c1,0.5,2.9-0.4,3.8,0.3
		c0.9,0.7,0.4,2.8,1.1,3.6c0.7,0.9,2.8,0.9,3.3,1.9c0.5,1-0.8,2.7-0.5,3.8C31.1,14.9,33,15.8,33,17z"/>
	<path class="st1" d="M21.2,24.1l0.6-0.6l-1.5-8.3l3.2-3.2c0.4-0.4,0.8-1.5,0.4-1.9c-0.4-0.4-1.5,0-1.9,0.4l-3.2,3.2l-8.3-1.5
		l-0.6,0.6l6.3,3.5c-1.3,1.4-2.3,2.6-2.9,3.5l0,0l-2.2-0.5L10.4,20l2.5,1.1l1.1,2.5l0.7-0.7l-0.5-2.2l0,0c0.9-0.6,2.2-1.6,3.5-2.9
		L21.2,24.1z"/>
</g>
</svg>
