<?xml version="1.0" encoding="utf-8"?>
<!-- Generator: Adobe Illustrator 15.0.0, SVG Export Plug-In  -->
<!DOCTYPE svg PUBLIC "-//W3C//DTD SVG 1.1//EN" "http://www.w3.org/Graphics/SVG/1.1/DTD/svg11.dtd" [
	<!ENTITY ns_flows "http://ns.adobe.com/Flows/1.0/">
]>
<svg version="1.1"
	 xmlns="http://www.w3.org/2000/svg" xmlns:xlink="http://www.w3.org/1999/xlink" xmlns:a="http://ns.adobe.com/AdobeSVGViewerExtensions/3.0/"
	 x="0px" y="0px" width="113px" height="113px" viewBox="0 0 113 113" overflow="visible" enable-background="new 0 0 113 113"
	 xml:space="preserve">
<defs>
</defs>
<path fill="#E5E5E4" d="M102.048,0H11.338C5.077,0,0,5.076,0,11.338v90.708c0,6.262,5.076,11.339,11.338,11.339h90.709
	c6.262,0,11.338-5.076,11.338-11.339V11.338C113.386,5.077,108.31,0,102.048,0z M90.508,39.349c0.034,0.749,0.051,1.501,0.051,2.257
	c0,23.057-17.549,49.642-49.64,49.642c-9.854,0-19.023-2.889-26.745-7.839c1.365,0.161,2.753,0.243,4.162,0.243
	c8.174,0,15.697-2.789,21.669-7.469C32.369,76.043,25.926,71,23.706,64.068c1.064,0.203,2.158,0.312,3.283,0.312
	c1.59,0,3.132-0.213,4.596-0.611c-7.981-1.604-13.996-8.655-13.996-17.108c0-0.073,0-0.147,0.003-0.219
	c2.351,1.306,5.042,2.091,7.902,2.182c-4.682-3.129-7.763-8.469-7.763-14.522c0-3.197,0.86-6.194,2.363-8.771
	c8.605,10.556,21.46,17.502,35.96,18.229c-0.298-1.277-0.451-2.609-0.451-3.976c0-9.635,7.812-17.447,17.447-17.447
	c5.018,0,9.554,2.119,12.734,5.509c3.974-0.782,7.708-2.234,11.079-4.233c-1.302,4.074-4.068,7.493-7.67,9.652
	c3.528-0.423,6.892-1.36,10.019-2.748C96.873,33.817,93.915,36.89,90.508,39.349z"/>
</svg>
